<?xml version="1.0" standalone="no"?>
<!DOCTYPE svg PUBLIC "-//W3C//DTD SVG 20010904//EN"
 "http://www.w3.org/TR/2001/REC-SVG-20010904/DTD/svg10.dtd">
<svg version="1.0" xmlns="http://www.w3.org/2000/svg"
 width="204.000000pt" height="192.000000pt" viewBox="0 0 204.000000 192.000000"
 preserveAspectRatio="xMidYMid meet">

<g transform="translate(0.000000,192.000000) scale(0.100000,-0.100000)"
fill="#000000" stroke="none">
<path d="M625 1878 c-59 -68 -93 -152 -105 -259 -11 -98 -4 -225 12 -236 14
-8 28 16 28 47 0 43 29 142 60 205 17 35 53 84 87 117 l58 57 247 2 248 3 33
-34 c19 -19 53 -52 77 -73 52 -48 75 -99 90 -202 6 -44 15 -92 20 -106 12 -38
-7 -307 -25 -360 -19 -52 -47 -84 -97 -110 -61 -31 -75 -26 -102 35 -36 82
-58 90 -236 90 -178 0 -200 -8 -236 -90 -27 -61 -41 -66 -102 -35 -82 42 -109
102 -118 255 -10 191 -19 202 -24 31 -6 -188 1 -239 40 -320 66 -135 149 -204
291 -241 115 -30 179 -30 301 0 112 28 167 62 227 140 88 115 104 174 102 375
-1 85 3 207 10 271 21 209 -11 351 -99 443 l-36 37 -357 0 -357 0 -37 -42z
m487 -888 c41 0 54 -5 78 -29 54 -53 52 -107 -6 -171 -42 -46 -62 -49 -121
-18 l-43 23 -42 -23 c-60 -31 -80 -28 -122 18 -56 62 -60 111 -12 167 21 24
34 29 93 34 37 4 81 5 97 3 16 -2 51 -4 78 -4z"/>
<path d="M864 955 c-9 -23 15 -72 48 -100 65 -55 151 -55 216 0 34 28 57 77
48 101 -5 14 -9 12 -27 -10 -20 -25 -24 -26 -124 -26 -99 0 -104 1 -123 25
-23 29 -30 31 -38 10z"/>
<path d="M742 1452 c-56 -20 -92 -47 -92 -69 0 -21 24 -15 49 11 28 30 106 49
162 40 25 -4 39 -3 39 4 0 29 -91 37 -158 14z"/>
<path d="M1171 1461 c-51 -14 -33 -28 36 -28 69 1 116 -15 142 -47 16 -20 41
-21 41 -3 0 46 -148 99 -219 78z"/>
<path d="M772 1304 c-41 -29 -23 -84 28 -84 50 0 66 44 30 80 -24 24 -29 24
-58 4z"/>
<path d="M1200 1293 c-24 -9 -50 -35 -50 -50 0 -11 6 -10 26 3 30 21 106 23
129 4 24 -20 32 -2 8 21 -20 21 -85 34 -113 22z"/>
<path d="M663 514 c-159 -27 -315 -135 -401 -276 l-23 -36 63 -62 c35 -34 86
-80 114 -101 l51 -39 549 0 c519 0 551 1 579 19 40 25 146 118 178 157 l25 30
-28 45 c-87 138 -246 242 -409 268 l-51 8 0 -32 c0 -70 -81 -144 -190 -171
-119 -30 -246 -3 -327 70 -39 36 -48 50 -52 88 l-6 44 -72 -12z"/>
</g>
</svg>
