<?xml version="1.0" standalone="no"?>
<!DOCTYPE svg PUBLIC "-//W3C//DTD SVG 20010904//EN"
 "http://www.w3.org/TR/2001/REC-SVG-20010904/DTD/svg10.dtd">
<svg version="1.0" xmlns="http://www.w3.org/2000/svg"
 width="204.000000pt" height="192.000000pt" viewBox="0 0 204.000000 192.000000"
 preserveAspectRatio="xMidYMid meet">

<g transform="translate(0.000000,192.000000) scale(0.100000,-0.100000)"
fill="#000000" stroke="none">
<path d="M929 1725 c-76 -28 -186 -94 -248 -149 -95 -84 -193 -339 -227 -587
-14 -102 -14 -123 -3 -134 25 -23 132 -77 208 -105 41 -15 70 -30 65 -32 -5
-3 -52 -24 -104 -46 -190 -81 -237 -115 -294 -212 -35 -60 -66 -136 -66 -162
0 -42 173 -182 309 -250 l95 -48 354 0 354 0 85 40 c102 48 190 109 271 189
l61 60 -25 68 c-29 77 -69 144 -114 190 -31 31 -197 118 -272 143 -21 6 -38
15 -38 20 0 4 19 12 43 18 23 6 82 29 130 52 l88 40 -6 58 c-21 185 -83 427
-144 557 -40 86 -134 198 -203 241 -91 58 -235 80 -319 49z m66 -265 c125 -52
255 -90 306 -90 l39 0 0 -133 c0 -121 -2 -137 -25 -183 -28 -57 -86 -122 -132
-149 -40 -24 -43 -53 -7 -86 14 -13 35 -36 45 -51 l20 -27 -36 -47 c-20 -26
-43 -61 -52 -78 -8 -17 -18 -33 -20 -36 -2 -3 -29 22 -58 55 l-54 60 -55 -60
c-30 -33 -56 -58 -59 -55 -2 3 -12 19 -20 36 -9 17 -32 52 -52 78 l-36 47 20
27 c10 15 31 38 45 51 35 33 33 54 -11 86 -55 41 -99 93 -128 149 -21 42 -25
64 -25 141 0 90 0 91 34 124 18 18 58 68 87 112 30 43 59 77 64 75 6 -3 55
-23 110 -46z m-323 -137 c2 -16 2 -61 0 -100 -3 -70 -5 -73 -28 -73 -42 0 -74
42 -74 95 0 54 13 83 43 95 40 16 55 12 59 -17z m761 16 c59 -27 63 -134 8
-176 -9 -7 -28 -13 -43 -13 l-28 0 0 100 c0 93 1 100 20 100 10 0 30 -5 43
-11z"/>
</g>
</svg>
