<?xml version="1.0" standalone="no"?>
<!DOCTYPE svg PUBLIC "-//W3C//DTD SVG 20010904//EN"
 "http://www.w3.org/TR/2001/REC-SVG-20010904/DTD/svg10.dtd">
<svg version="1.0" xmlns="http://www.w3.org/2000/svg"
 width="204.000000pt" height="192.000000pt" viewBox="0 0 204.000000 192.000000"
 preserveAspectRatio="xMidYMid meet">

<g transform="translate(0.000000,192.000000) scale(0.100000,-0.100000)"
fill="#000000" stroke="none">
<path d="M566 1623 c-3 -3 -6 -114 -6 -246 0 -217 -2 -241 -17 -253 -26 -18
-26 -193 0 -221 16 -18 17 -41 15 -243 l-3 -223 -125 -51 c-69 -27 -127 -51
-129 -53 -15 -11 148 -148 244 -205 120 -72 329 -128 475 -128 196 0 426 79
580 198 53 42 140 124 140 132 0 4 -15 11 -32 17 -18 6 -76 29 -128 51 l-95
39 -3 223 c-2 202 -1 225 15 243 26 28 26 203 1 221 -16 12 -18 37 -18 261 0
214 -2 246 -15 241 -8 -3 -48 -30 -89 -61 l-74 -56 -55 31 c-141 79 -333 75
-469 -12 l-48 -30 -78 66 c-44 36 -82 63 -86 59z m208 -597 c7 -29 39 -39 63
-20 18 13 53 19 53 8 0 -36 -64 -69 -104 -54 -47 17 -76 90 -37 90 11 0 21 -9
25 -24z m536 5 c0 -26 -35 -68 -65 -75 -22 -6 -85 16 -85 28 0 3 -3 11 -6 20
-7 19 25 23 43 5 17 -17 57 -6 68 19 12 27 45 30 45 3z m-455 -197 l170 -36
184 41 c102 22 186 39 189 37 2 -3 -6 -49 -19 -103 -40 -175 -84 -233 -212
-274 -182 -59 -394 -1 -459 124 -18 36 -68 218 -68 249 0 6 10 8 23 4 12 -3
99 -22 192 -42z m100 -644 c19 -21 45 -27 45 -10 0 6 9 10 20 10 11 0 20 -4
20 -10 0 -17 29 -11 47 10 15 17 30 20 90 20 40 0 73 -2 73 -5 0 -2 -11 -15
-25 -29 -14 -14 -25 -34 -25 -46 0 -17 -6 -20 -46 -20 -49 0 -76 -10 -111 -43
l-23 -20 -22 20 c-36 33 -63 43 -112 43 -39 0 -46 3 -46 19 0 11 -12 33 -26
50 l-26 31 75 0 c61 0 77 -3 92 -20z"/>
<path d="M892 687 c-7 -9 -8 -17 -1 -27 8 -11 12 -12 16 -2 3 8 36 12 113 12
77 0 110 -4 113 -12 4 -10 8 -9 16 2 22 31 -6 40 -129 40 -83 0 -121 -4 -128
-13z"/>
</g>
</svg>
