<?xml version="1.0" standalone="no"?>
<!DOCTYPE svg PUBLIC "-//W3C//DTD SVG 20010904//EN"
 "http://www.w3.org/TR/2001/REC-SVG-20010904/DTD/svg10.dtd">
<svg version="1.0" xmlns="http://www.w3.org/2000/svg"
 width="204.000000pt" height="192.000000pt" viewBox="0 0 204.000000 192.000000"
 preserveAspectRatio="xMidYMid meet">

<g transform="translate(0.000000,192.000000) scale(0.100000,-0.100000)"
fill="#000000" stroke="none">
<path d="M575 1866 c-294 -146 -487 -399 -556 -731 -7 -33 -13 -114 -13 -180
0 -239 77 -456 231 -647 88 -108 185 -184 330 -258 97 -49 102 -50 187 -50
l88 0 -6 27 c-22 101 -37 214 -43 313 -3 63 -11 118 -16 122 -10 6 82 38 110
38 8 0 13 13 13 35 l0 35 119 0 120 0 3 -32 c3 -30 7 -33 67 -51 36 -10 60
-22 54 -25 -5 -4 -13 -59 -16 -122 -6 -99 -21 -212 -43 -313 l-6 -27 88 0 c85
0 90 1 187 50 293 149 468 376 543 707 21 93 24 288 5 378 -69 332 -262 585
-556 731 l-109 54 -336 0 -336 0 -109 -54z m638 -545 c24 -19 39 -85 41 -172
l1 -77 28 15 c25 13 31 12 54 -2 13 -9 31 -33 40 -52 22 -53 9 -100 -39 -146
-21 -20 -51 -63 -64 -95 -29 -64 -60 -102 -84 -102 -9 0 -30 17 -47 38 -60 74
-191 73 -249 -3 -14 -19 -34 -35 -43 -35 -26 0 -56 37 -89 110 -16 36 -39 71
-50 77 -46 27 -69 122 -42 172 6 12 21 28 35 37 21 13 27 14 52 1 l28 -15 1
77 c2 92 18 155 44 174 28 19 360 18 383 -2z m-155 -583 c22 -22 13 -28 -38
-28 -27 0 -50 4 -50 8 0 29 65 43 88 20z m-408 -328 c-8 -5 -19 -10 -25 -10
-5 0 -3 5 5 10 8 5 20 10 25 10 6 0 3 -5 -5 -10z m760 0 c8 -5 11 -10 5 -10
-5 0 -17 5 -25 10 -8 5 -10 10 -5 10 6 0 17 -5 25 -10z m-830 -34 c0 -2 -8
-10 -17 -17 -16 -13 -17 -12 -4 4 13 16 21 21 21 13z m901 -13 c13 -16 12 -17
-3 -4 -10 7 -18 15 -18 17 0 8 8 3 21 -13z"/>
</g>
</svg>
