<?xml version="1.0" standalone="no"?>
<!DOCTYPE svg PUBLIC "-//W3C//DTD SVG 20010904//EN"
 "http://www.w3.org/TR/2001/REC-SVG-20010904/DTD/svg10.dtd">
<svg version="1.0" xmlns="http://www.w3.org/2000/svg"
 width="545.000000pt" height="360.000000pt" viewBox="0 0 545.000000 360.000000"
 preserveAspectRatio="xMidYMid meet">

<g transform="translate(0.000000,360.000000) scale(0.100000,-0.100000)"
fill="#000000" stroke="none">
<path d="M2366 2745 c-42 -15 -87 -53 -104 -88 -6 -12 -31 -66 -55 -119 l-45
-96 -233 -4 -234 -3 -54 -30 c-59 -33 -89 -67 -123 -141 -23 -49 -23 -53 -26
-549 -4 -539 -2 -570 47 -646 38 -60 92 -95 186 -120 73 -20 110 -22 443 -27
315 -3 362 -2 362 11 0 12 -48 15 -332 19 -309 5 -338 7 -402 28 -57 18 -80
32 -127 79 -47 48 -59 66 -69 112 -8 39 -11 192 -8 544 l3 490 27 47 c19 32
41 52 71 67 40 20 60 21 288 21 l245 0 63 139 c34 77 71 147 83 158 19 17 47
18 414 21 327 2 399 0 421 -12 21 -11 43 -47 94 -158 l66 -143 239 -2 c268 -1
274 9 15 28 l-164 12 -53 116 c-91 198 -94 203 -154 234 l-54 27 -395 0 c-310
-1 -404 -4 -435 -15z"/>
<path d="M2655 2314 c-94 -20 -219 -83 -288 -145 -168 -150 -259 -422 -213
-639 40 -190 165 -351 338 -434 108 -52 169 -66 278 -66 109 0 170 14 278 66
171 82 292 237 342 438 99 395 -174 769 -579 791 -57 3 -110 -1 -156 -11z
m243 -40 c181 -36 333 -153 410 -315 47 -99 62 -162 62 -266 0 -156 -55 -288
-170 -404 -126 -128 -270 -185 -445 -176 -315 16 -556 267 -557 582 -1 152 51
289 150 396 147 160 343 225 550 183z"/>
<path d="M2682 2075 c-93 -26 -157 -71 -214 -150 l-29 -39 71 -12 c40 -7 74
-14 76 -16 2 -3 -1 -20 -6 -39 -6 -18 -10 -53 -10 -77 l0 -44 31 26 c34 29 67
33 108 12 70 -37 64 -128 -10 -167 l-34 -18 40 -18 c51 -23 158 -24 200 -1 35
19 74 53 98 88 l17 24 59 -58 60 -59 16 58 c25 85 17 205 -18 277 -65 132
-187 215 -328 224 -48 2 -93 -1 -127 -11z"/>
<path d="M2390 1712 c0 -154 91 -299 230 -366 59 -28 74 -31 165 -31 93 0 105
2 165 32 36 18 83 51 105 74 l40 41 -47 -35 c-55 -41 -132 -72 -203 -81 -196
-26 -409 139 -432 334 -6 55 -23 79 -23 32z"/>
<path d="M1777 2243 c-33 -37 -30 -101 7 -125 6 -4 57 -8 112 -8 117 0 129 7
129 75 0 68 -12 75 -130 75 -84 0 -105 -3 -118 -17z"/>
</g>
</svg>
