<?xml version="1.0" standalone="no"?>
<!DOCTYPE svg PUBLIC "-//W3C//DTD SVG 20010904//EN"
 "http://www.w3.org/TR/2001/REC-SVG-20010904/DTD/svg10.dtd">
<svg version="1.0" xmlns="http://www.w3.org/2000/svg"
 width="204.000000pt" height="192.000000pt" viewBox="0 0 204.000000 192.000000"
 preserveAspectRatio="xMidYMid meet">

<g transform="translate(0.000000,192.000000) scale(0.100000,-0.100000)"
fill="#000000" stroke="none">
<path d="M1010 1836 c-84 -18 -167 -64 -242 -135 l-68 -63 0 39 c0 21 6 46 13
54 6 7 -7 -4 -31 -26 -90 -83 -137 -234 -130 -417 3 -82 9 -112 23 -135 11
-15 27 -55 36 -88 11 -38 18 -51 18 -34 1 39 29 112 47 122 32 18 35 53 8 111
l-25 55 19 43 c35 80 184 138 356 138 103 0 188 -20 269 -63 97 -51 124 -110
88 -192 -26 -59 -26 -76 -1 -117 13 -22 20 -51 20 -87 0 -64 9 -61 21 6 5 26
22 65 37 87 25 36 27 47 27 135 0 53 -4 131 -9 173 l-9 77 36 36 35 35 -48 25
c-27 14 -81 30 -120 36 -42 7 -67 16 -62 21 5 5 35 19 66 32 l57 23 -42 17
c-85 34 -234 37 -337 7 -31 -9 -33 -9 -26 12 3 12 20 37 37 55 36 37 30 39
-63 18z"/>
<path d="M1340 779 c-18 -38 -37 -69 -41 -69 -5 0 -9 -32 -9 -72 0 -108 -31
-188 -97 -255 -29 -29 -79 -66 -111 -82 l-59 -30 -49 29 c-111 64 -174 160
-184 279 -5 68 -9 81 -44 125 -20 27 -45 68 -54 90 l-16 40 -39 -45 c-70 -79
-82 -111 -82 -222 l0 -98 -50 -28 c-89 -49 -134 -85 -170 -135 -19 -27 -35
-53 -35 -58 0 -26 161 -144 274 -201 88 -44 97 -47 174 -47 l81 0 3 128 c3
119 4 127 23 127 19 0 20 -8 23 -127 l3 -128 139 0 140 0 0 130 c0 123 1 130
20 130 20 0 30 -24 28 -65 -1 -11 -1 -59 0 -107 l2 -88 81 0 c77 0 85 2 182
51 95 48 196 118 241 168 18 20 18 21 -8 64 -31 55 -107 124 -169 156 -26 13
-47 25 -47 26 0 2 7 20 16 41 31 75 3 197 -67 285 -54 68 -61 67 -99 -12z"/>
</g>
</svg>
