<?xml version="1.0" standalone="no"?>
<!DOCTYPE svg PUBLIC "-//W3C//DTD SVG 20010904//EN"
 "http://www.w3.org/TR/2001/REC-SVG-20010904/DTD/svg10.dtd">
<svg version="1.0" xmlns="http://www.w3.org/2000/svg"
 width="1024.000000pt" height="1024.000000pt" viewBox="0 0 1024.000000 1024.000000"
 preserveAspectRatio="xMidYMid meet">

<g transform="translate(0.000000,1024.000000) scale(0.100000,-0.100000)"
fill="#000000" stroke="none">
<path d="M0 5120 l0 -5120 2461 0 2461 0 -73 79 c-41 43 -84 98 -97 122 -13
26 -15 34 -5 19 47 -64 137 -171 164 -194 l31 -26 2649 0 2649 0 0 5120 0
5120 -5120 0 -5120 0 0 -5120z m3341 4535 c90 -45 297 -192 451 -319 68 -57
117 -90 123 -85 20 15 47 -21 60 -81 7 -33 6 -34 -9 -15 -15 19 -15 19 -9 -4
l6 -25 -33 24 c-18 13 -35 32 -38 42 -2 10 -11 18 -19 18 -8 0 -12 4 -9 9 8
13 -147 156 -224 208 -36 24 -108 73 -160 109 -139 97 -210 129 -289 129 -62
0 -64 -1 -102 -43 -76 -86 -104 -221 -88 -426 5 -66 12 -129 15 -140 14 -49
57 -126 70 -126 8 0 14 -7 14 -15 0 -8 5 -15 11 -15 6 0 9 -6 6 -14 -4 -9 5
-15 29 -19 22 -4 48 -19 69 -41 l35 -36 -35 0 c-44 0 -60 -25 -35 -53 10 -10
17 -24 14 -31 -2 -6 4 -21 15 -32 14 -15 16 -25 9 -38 -6 -11 -6 -22 2 -31 13
-16 -1 -28 -24 -19 -12 5 -10 -6 10 -45 22 -43 25 -53 14 -66 -9 -11 -22 -14
-38 -10 -20 5 -23 3 -18 -10 3 -9 6 -23 6 -31 0 -9 5 -12 13 -8 6 4 3 -3 -8
-16 l-20 -23 25 8 c14 4 43 17 65 30 189 108 280 155 291 151 8 -3 21 8 30 24
28 46 350 231 531 304 190 77 180 72 153 86 -14 8 -20 8 -16 1 10 -15 -7 -14
-22 1 -9 9 -12 9 -12 0 0 -17 -16 -15 -34 4 -15 14 -16 13 -16 -8 -1 -21 -2
-21 -11 -5 -9 15 -13 16 -27 5 -9 -7 -13 -8 -9 -2 4 7 0 15 -9 18 -8 3 -13 9
-10 14 2 4 1 14 -3 21 -6 10 -15 2 -32 -26 -33 -54 -112 -163 -115 -160 -17
17 163 387 221 455 47 54 98 80 260 131 522 163 900 157 1455 -24 138 -45 146
-50 196 -101 41 -42 70 -88 129 -209 100 -205 124 -272 91 -259 -7 3 -26 29
-42 57 -43 80 -84 142 -84 128 0 -7 -4 -9 -10 -6 -5 3 -10 1 -10 -5 0 -7 -7
-9 -16 -6 -15 6 -15 4 -3 -11 7 -10 9 -15 4 -10 -4 4 -19 0 -32 -8 -13 -9 -27
-13 -32 -10 -17 10 -81 14 -81 5 0 -6 9 -10 21 -10 11 0 18 -3 15 -8 -2 -4 48
-30 112 -57 122 -52 392 -200 475 -261 35 -25 56 -51 74 -90 25 -54 27 -88 2
-43 -56 106 -295 255 -551 344 -201 70 -360 103 -532 110 -71 2 -138 7 -150
11 -12 4 -18 3 -14 -1 4 -4 74 -18 155 -31 81 -13 191 -35 243 -49 90 -24 186
-63 177 -71 -2 -2 -53 10 -113 27 -223 63 -566 96 -891 85 -313 -10 -490 -35
-701 -97 -57 -16 -108 -29 -114 -27 -22 8 99 56 192 78 52 12 120 28 150 35
30 7 93 19 140 26 l85 13 -45 8 c-53 10 -165 -3 -335 -38 -298 -63 -637 -216
-789 -357 -35 -34 -46 -39 -46 -25 0 20 -18 24 -26 6 -2 -7 -87 -53 -187 -103
-133 -65 -186 -97 -195 -114 -17 -35 -16 -38 20 -45 34 -7 58 -23 58 -39 0 -5
-8 -3 -17 5 -10 9 -31 20 -48 25 l-30 10 -1 107 c-1 88 -4 110 -20 127 -16 17
-16 19 -1 13 9 -3 17 -3 17 0 0 4 -22 91 -50 194 -73 276 -83 342 -84 532 -1
190 13 262 68 346 69 103 159 118 297 49z m3757 18 c38 -28 89 -106 108 -166
22 -69 30 -312 14 -431 -6 -50 -28 -156 -47 -236 -19 -80 -35 -154 -35 -164 1
-20 -44 -205 -51 -213 -3 -2 -16 2 -31 8 -25 12 -25 13 -10 31 16 17 16 18 -1
18 -15 0 -14 4 8 34 30 39 26 52 -9 29 -14 -9 -24 -11 -24 -5 0 6 8 16 18 22
16 11 16 11 0 6 -23 -7 -23 -1 4 37 29 40 34 87 10 88 -10 0 -7 4 11 11 15 5
27 13 27 17 0 10 -86 54 -106 54 -10 0 -11 4 -5 10 7 7 19 6 37 -2 15 -6 29
-9 32 -6 4 3 -4 8 -16 12 -12 3 -22 9 -22 14 0 10 54 6 84 -7 14 -5 17 -4 12
4 -4 7 -1 15 8 18 8 3 18 14 21 25 4 11 11 16 17 13 5 -3 9 2 8 12 -1 11 -2
22 -1 27 0 4 1 10 0 13 0 4 4 10 11 14 34 21 54 401 26 506 -18 69 -63 150
-100 181 -27 23 -37 25 -92 20 -73 -5 -150 -38 -242 -104 -37 -26 -97 -68
-134 -93 -76 -53 -228 -193 -228 -210 0 -6 5 -8 10 -5 23 14 7 -14 -27 -49
-33 -33 -38 -35 -46 -19 -6 10 -11 20 -13 22 -2 2 -15 -11 -29 -28 -25 -28
-55 -44 -40 -21 3 6 -1 10 -9 10 -41 0 -4 72 46 89 l32 11 -29 -32 -30 -33 30
25 c16 14 31 28 33 33 2 4 9 7 15 7 7 0 59 42 117 92 186 162 363 284 463 320
63 22 138 19 175 -9z m-273 -133 c-3 -5 -16 -15 -28 -21 -21 -10 -21 -9 2 10
25 23 36 27 26 11z m-78 -35 c0 -8 -3 -12 -7 -10 -4 3 -15 -4 -25 -15 -10 -11
-22 -17 -26 -14 -5 3 -9 1 -9 -4 0 -10 -50 -35 -57 -29 -5 6 49 40 64 40 7 0
23 11 35 24 25 27 25 27 25 8z m108 -9 c-46 -37 -85 -58 -85 -47 0 6 4 11 8
11 5 0 29 13 53 30 53 36 65 39 24 6z m-3310 -68 c13 -12 -41 0 -75 17 -14 7
-36 25 -50 41 -24 26 -22 25 45 -11 39 -20 75 -42 80 -47z m-58 -14 c32 -20
50 -34 41 -30 -30 9 -20 -2 17 -20 19 -9 35 -20 35 -24 0 -10 -128 34 -144 50
-8 8 -4 9 17 1 56 -21 51 -10 -16 34 -111 75 -75 67 50 -11z m3423 42 c-15
-20 -110 -80 -115 -74 -4 3 113 87 124 88 2 0 -2 -7 -9 -14z m-165 -36 c-10
-11 -24 -20 -30 -20 -7 0 -26 -7 -41 -15 -16 -8 -36 -15 -44 -15 -14 1 105 67
124 69 5 1 1 -8 -9 -19z m210 0 c-3 -5 -37 -28 -75 -50 -66 -38 -87 -56 -78
-65 2 -3 35 13 73 35 37 22 69 39 71 37 2 -2 -19 -22 -46 -44 -30 -25 -45 -43
-38 -46 15 -5 -56 -37 -81 -37 -9 0 -22 -5 -27 -10 -6 -6 -25 -15 -43 -20 -27
-7 -32 -7 -27 5 4 10 -2 15 -17 16 -17 0 -15 3 13 15 21 8 25 12 11 10 -37 -8
-5 17 44 33 22 7 63 30 90 51 41 30 120 78 133 80 2 0 0 -4 -3 -10z m-3370
-18 c-3 -3 -11 0 -18 7 -9 10 -8 11 6 5 10 -3 15 -9 12 -12z m-199 -23 c3 -5
2 -9 -1 -9 -9 0 -65 30 -65 35 0 7 60 -16 66 -26z m3393 -2 c-2 -1 -13 -9 -24
-17 -19 -14 -19 -14 -6 3 7 9 18 17 24 17 6 0 8 -1 6 -3z m-3424 -56 c12 -20
110 -41 146 -31 42 12 42 12 34 0 -3 -6 3 -14 15 -18 12 -4 21 -12 20 -17 -1
-6 9 -13 22 -17 21 -5 20 -6 -7 -8 -16 -1 -39 -5 -50 -9 -19 -8 -19 -8 0 -19
18 -11 18 -11 -7 -12 -16 0 -28 5 -28 10 0 6 -9 10 -20 10 -50 0 -221 78 -192
88 10 3 8 8 -5 19 -17 13 -16 14 7 10 14 -2 34 -8 45 -12 16 -6 15 -3 -5 15
-22 19 -22 20 -3 11 12 -6 24 -15 28 -20z m68 15 c16 -13 16 -14 1 -20 -9 -4
-19 -4 -22 -1 -3 3 1 5 9 5 10 1 8 5 -5 15 -11 8 -16 15 -10 15 5 0 17 -7 27
-14z m3262 4 c-3 -5 -11 -10 -16 -10 -6 0 -7 5 -4 10 3 6 11 10 16 10 6 0 7
-4 4 -10z m45 6 c0 -2 -7 -7 -16 -10 -8 -3 -12 -2 -9 4 6 10 25 14 25 6z
m-3235 -44 c-3 -3 -11 0 -18 7 -9 10 -8 11 6 5 10 -3 15 -9 12 -12z m3445 13
c0 -2 -10 -9 -22 -15 -22 -11 -22 -10 -4 4 21 17 26 19 26 11z m-2877 -75 c3
-11 1 -23 -4 -26 -5 -3 -9 1 -9 10 0 8 -3 22 -7 32 -4 11 -3 15 4 11 6 -4 13
-16 16 -27z m-67 12 c6 -4 14 -17 18 -29 4 -13 14 -23 21 -23 12 0 12 -5 3
-25 -6 -14 -14 -25 -18 -25 -8 0 -50 83 -50 99 0 13 10 14 26 3z m2235 -24
c-5 -14 -16 -28 -25 -31 -13 -5 -13 -2 -3 21 20 46 45 54 28 10z m-44 -10 c-3
-7 -5 -2 -5 12 0 14 2 19 5 13 2 -7 2 -19 0 -25z m-2369 -8 c15 -25 4 -25 -28
0 -23 18 -23 20 -5 20 11 0 26 -9 33 -20z m42 -24 c0 -3 -4 -8 -10 -11 -5 -3
-10 -1 -10 4 0 6 5 11 10 11 6 0 10 -2 10 -4z m2480 -29 c0 -2 -10 -12 -22
-23 l-23 -19 19 23 c18 21 26 27 26 19z m-2450 -27 c0 -5 -7 -7 -15 -4 -8 4
-15 8 -15 10 0 2 7 4 15 4 8 0 15 -4 15 -10z m2450 -24 c0 -2 -8 -10 -17 -17
-16 -13 -17 -12 -4 4 13 16 21 21 21 13z m-2793 -12 c-3 -3 -12 -4 -19 -1 -8
3 -5 6 6 6 11 1 17 -2 13 -5z m50 0 c-3 -3 -12 -4 -19 -1 -8 3 -5 6 6 6 11 1
17 -2 13 -5z m3096 -1 c-13 -2 -35 -2 -50 0 -16 2 -5 4 22 4 28 0 40 -2 28 -4z
m-3163 -53 c-8 -5 -44 -9 -80 -8 l-65 2 70 6 c39 4 75 7 80 8 6 1 3 -3 -5 -8z
m93 0 c10 0 15 -4 12 -10 -3 -5 -30 -9 -58 -8 -42 1 -45 2 -17 6 30 4 32 5 15
13 -17 8 -16 9 5 4 14 -2 33 -5 43 -5z m3215 -5 c-7 -7 -168 -8 -175 -1 -4 3
36 6 87 6 51 0 91 -2 88 -5z m-3321 -21 c-3 -3 -12 -4 -19 -1 -8 3 -5 6 6 6
11 1 17 -2 13 -5z m3141 -1 c-10 -2 -26 -2 -35 0 -10 3 -2 5 17 5 19 0 27 -2
18 -5z m-3101 -9 c-3 -3 -12 -4 -19 -1 -8 3 -5 6 6 6 11 1 17 -2 13 -5z m50
-10 c-3 -3 -12 -4 -19 -1 -8 3 -5 6 6 6 11 1 17 -2 13 -5z m66 -21 c-7 -2 -21
-2 -30 0 -10 3 -4 5 12 5 17 0 24 -2 18 -5z m2940 0 c-7 -2 -19 -2 -25 0 -7 3
-2 5 12 5 14 0 19 -2 13 -5z m-88 -43 c13 -6 15 -9 5 -9 -8 0 -22 4 -30 9 -18
12 -2 12 25 0z m-2765 -10 c-20 -13 -53 -13 -45 0 3 6 18 10 33 10 21 0 24 -2
12 -10z m1463 -87 c-56 -2 -151 -2 -210 0 -59 1 -13 3 102 3 116 0 164 -2 108
-3z m657 -53 c0 -5 -7 -7 -15 -4 -8 4 -15 8 -15 10 0 2 7 4 15 4 8 0 15 -4 15
-10z m-1538 -10 c2 -7 20 -7 53 -1 28 5 52 8 54 5 5 -4 -9 -9 -69 -24 l-44
-12 51 -23 c28 -13 55 -29 59 -36 4 -7 8 -197 9 -423 1 -226 3 -414 3 -417 1
-3 12 -5 25 -3 12 1 27 3 34 3 20 2 74 53 109 105 40 60 44 57 9 -7 -32 -56
-93 -113 -148 -136 -97 -41 -142 -46 -432 -45 -248 1 -293 4 -390 24 -190 38
-191 39 -181 186 4 65 1 94 -10 115 -8 16 -14 30 -13 31 0 2 -4 16 -10 31 -14
36 -14 60 -1 52 6 -3 10 -1 10 5 0 6 -6 13 -14 16 -8 3 -11 15 -8 30 3 19 7
22 18 13 8 -6 14 -23 14 -38 1 -14 8 -44 16 -66 9 -22 15 -53 15 -70 -1 -16 6
-79 15 -138 14 -89 20 -111 38 -121 20 -13 181 -43 259 -48 l38 -3 -1 268 c0
148 2 308 6 357 6 79 9 88 25 85 10 -2 21 0 24 6 4 5 11 9 17 9 8 0 9 -104 6
-360 -5 -319 -2 -389 16 -369 2 2 7 166 11 364 3 198 9 363 11 367 3 5 16 8
29 8 18 0 26 -7 31 -26 11 -43 -2 -655 -15 -686 l-11 -28 112 0 111 0 -6 83
c-4 45 -7 235 -8 421 -2 337 -2 339 19 357 12 9 22 22 22 28 0 6 7 11 15 11
18 0 55 35 55 51 0 11 -39 9 -110 -6 -14 -3 4 5 39 18 36 13 67 29 69 35 5 15
19 16 24 2z m1018 -34 c52 -10 100 -20 107 -22 8 -2 12 -60 13 -206 2 -218 4
-252 15 -283 4 -11 -18 23 -47 75 -107 186 -173 232 -327 232 -68 0 -98 -5
-139 -22 -82 -35 -118 -85 -217 -300 -85 -185 -119 -244 -71 -124 22 55 24 76
30 338 3 154 9 282 11 284 3 3 17 6 32 8 16 1 48 7 73 14 128 33 362 36 520 6z
m485 14 c7 -12 -2 -12 -30 0 -19 8 -19 9 2 9 12 1 25 -3 28 -9z m35 -10 c0 -5
-2 -10 -4 -10 -3 0 -8 5 -11 10 -3 6 -1 10 4 10 6 0 11 -4 11 -10z m-40 -79
c10 -19 14 -21 21 -10 7 11 9 11 9 1 0 -8 5 -12 12 -10 6 2 21 -6 34 -19 13
-13 31 -23 42 -23 41 0 42 -7 42 -432 l0 -408 -27 0 c-53 0 -158 21 -198 40
-22 10 -54 31 -71 46 -16 16 -23 23 -14 17 9 -7 18 -13 21 -13 2 0 5 102 5
228 1 125 2 310 3 411 l1 183 40 -4 c39 -3 40 -2 47 32 6 34 7 34 13 9 4 -14
13 -36 20 -48z m1025 -172 c182 -94 211 -104 220 -81 4 11 9 12 17 4 14 -14 3
-42 -18 -42 -9 0 -73 29 -143 65 -69 35 -149 74 -178 86 -49 20 -88 49 -66 49
5 0 81 -36 168 -81z m-790 -6 c0 -16 3 -31 7 -34 11 -7 -2 -69 -13 -69 -5 0
-9 29 -8 65 1 36 5 65 8 65 4 0 7 -12 6 -27z m719 -54 c9 -28 16 -60 16 -71 0
-10 4 -17 9 -14 5 3 9 0 8 -7 -1 -35 4 -58 12 -53 8 6 21 -15 21 -34 0 -20
-39 5 -45 28 -15 63 -58 198 -66 207 -17 18 -9 28 10 11 10 -9 26 -39 35 -67z
m-3304 56 c0 -2 -4 -14 -9 -27 -6 -13 -22 -62 -36 -110 -15 -49 -31 -88 -36
-88 -5 0 -9 4 -9 9 0 5 -3 17 -7 27 -4 11 -3 15 4 11 7 -5 23 28 43 88 17 52
36 95 41 95 5 0 9 -2 9 -5z m1749 -21 c23 -9 59 -36 80 -60 37 -42 88 -144 72
-144 -5 0 -6 -12 -3 -27 4 -27 4 -27 -12 -8 -9 11 -16 16 -15 10 3 -26 -3 -27
-28 -4 l-28 24 26 -30 c29 -33 87 -141 70 -130 -21 13 -10 -17 55 -148 78
-155 140 -247 188 -276 33 -21 117 -35 256 -44 30 -3 -3 -4 -75 -3 -117 1
-135 3 -180 26 -63 31 -113 103 -218 308 -42 81 -89 166 -106 189 -44 61 -100
87 -186 88 -86 0 -143 -28 -192 -95 -18 -25 -37 -49 -41 -55 -4 -5 -41 -76
-81 -156 -81 -163 -127 -230 -186 -271 -34 -24 -57 -30 -145 -39 -85 -9 -287
-5 -298 6 -1 1 66 5 150 8 224 8 292 40 369 175 18 32 34 50 41 46 6 -4 8 -3
5 4 -9 13 2 44 13 37 7 -5 23 31 21 48 -1 4 3 7 9 7 5 0 6 7 3 17 -4 11 -3 14
5 9 7 -4 12 -1 12 7 0 8 8 32 17 53 10 22 18 44 18 49 1 20 44 103 70 133 25
30 23 46 -3 20 -9 -9 -12 -9 -12 2 0 10 -5 9 -19 -4 -29 -27 -33 3 -10 73 35
103 80 151 162 172 45 12 147 3 196 -17z m-1630 -173 c2 0 -3 -9 -10 -18 -10
-11 -10 -14 -1 -9 6 4 18 4 25 -1 7 -5 -3 -10 -28 -13 -45 -6 -65 -3 -65 12 0
23 46 40 79 29z m3114 -21 c7 -26 -6 -33 -43 -25 -47 10 -39 45 11 45 18 0 28
-6 32 -20z m-3618 -10 c41 -9 85 -49 85 -77 0 -15 -2 -15 -18 0 -20 18 -37 23
-27 8 3 -6 -4 -7 -17 -4 -13 3 -55 8 -95 10 -62 4 -74 2 -92 -16 -26 -26 -31
-26 -24 -2 10 39 83 88 133 90 8 0 33 -4 55 -9z m4169 -22 c20 -17 36 -40 36
-49 0 -16 -2 -17 -27 -3 -38 20 -181 17 -205 -4 -15 -12 -18 -13 -18 -1 0 11
-2 11 -11 -1 -7 -10 -9 -11 -7 -2 2 8 7 12 12 10 4 -2 14 9 22 24 12 24 39 38
99 51 45 10 65 5 99 -25z m-3869 -27 c-3 -16 -8 -44 -10 -62 -3 -18 -9 -37
-15 -43 -7 -7 -8 5 -4 39 8 76 13 95 25 95 7 0 8 -11 4 -29z m3411 4 c3 -13 0
-47 -7 -76 -11 -42 -14 -47 -19 -28 -8 33 0 129 11 129 5 0 11 -11 15 -25z
m-3244 -30 c-2 -14 -6 -25 -8 -25 -2 0 -4 11 -4 25 0 14 4 25 9 25 4 0 6 -11
3 -25z m2676 -101 c2 -70 -1 -103 -8 -99 -17 10 -13 205 5 205 0 0 2 -48 3
-106z m-2918 76 c0 -5 -9 -14 -20 -20 -15 -8 -20 -8 -20 3 0 8 3 17 7 20 10
10 33 8 33 -3z m267 -22 c-3 -7 -5 -2 -5 12 0 14 2 19 5 13 2 -7 2 -19 0 -25z
m3280 10 c-3 -8 -6 -5 -6 6 -1 11 2 17 5 13 3 -3 4 -12 1 -19z m-1433 -40 c9
-17 14 -33 12 -36 -4 -4 -36 51 -36 63 0 13 10 3 24 -27z m-2078 -48 c1 -16
-3 -27 -7 -24 -14 8 -9 54 5 54 1 0 1 -13 2 -30z m207 15 c-3 -9 -8 -14 -10
-11 -3 3 -2 9 2 15 9 16 15 13 8 -4z m1910 -45 c3 -11 1 -20 -4 -20 -5 0 -9 4
-9 9 0 5 -3 17 -7 27 -4 11 -3 15 4 11 6 -4 13 -16 16 -27z m1267 -88 c0 -48
-14 -119 -24 -129 -8 -9 -205 -42 -241 -42 -31 1 33 17 151 39 l61 12 7 70 c7
73 21 113 37 103 5 -4 9 -27 9 -53z m-1267 8 c8 -29 0 -24 -19 13 -14 27 -15
30 -2 19 9 -7 18 -22 21 -32z m31 24 c3 -8 2 -12 -4 -9 -6 3 -10 10 -10 16 0
14 7 11 14 -7z m56 -184 c6 -11 8 -20 6 -20 -3 0 -10 9 -16 20 -6 11 -8 20 -6
20 3 0 10 -9 16 -20z m-2070 -27 c0 -7 -4 -13 -10 -13 -5 0 -10 12 -10 28 0
21 2 24 10 12 5 -8 10 -21 10 -27z m-190 7 c-8 -5 -19 -10 -25 -10 -5 0 -3 5
5 10 8 5 20 10 25 10 6 0 3 -5 -5 -10z m1030 -74 c0 -19 -17 -29 -25 -16 -4 7
-12 7 -26 0 -14 -8 -19 -7 -19 3 0 20 10 27 42 27 18 0 28 -5 28 -14z m940 5
c44 -8 45 -9 10 -11 -19 -1 -48 -4 -65 -6 -56 -6 -283 10 -245 17 50 9 246 9
300 0z m1930 -47 c0 -14 -4 -22 -10 -19 -5 3 -10 17 -10 31 0 14 4 22 10 19 6
-3 10 -17 10 -31z m-4180 4 c0 -13 -5 -30 -10 -38 -7 -11 -10 -5 -10 23 0 20
5 37 10 37 6 0 10 -10 10 -22z m2335 2 c-40 -10 -413 -10 -445 0 -14 4 86 8
225 8 138 0 237 -4 220 -8z m1852 -197 c-3 -2 -18 2 -34 11 -15 8 -23 15 -16
16 7 0 18 19 24 43 l12 42 10 -53 c5 -30 7 -56 4 -59z m-4197 77 c0 -30 36
-60 73 -61 23 0 14 -5 -32 -15 -36 -7 -67 -12 -69 -9 -8 7 10 105 19 105 5 0
9 -9 9 -20z m227 -124 c38 -44 63 -101 63 -145 0 -34 -17 -16 -25 26 -9 51
-50 128 -77 147 -12 9 -17 16 -11 16 6 0 29 -20 50 -44z m3709 14 c-31 -38
-56 -117 -56 -181 0 -26 -4 -51 -10 -54 -14 -9 -13 103 1 146 11 31 74 119 86
119 2 0 -7 -14 -21 -30z m204 -16 c25 -3 63 -6 85 -7 29 -2 41 -7 43 -19 2
-11 -3 -18 -12 -18 -28 0 -89 -64 -113 -117 -22 -51 -43 -69 -43 -38 0 19 56
133 77 156 13 15 8 17 -56 24 -105 10 -130 -8 -182 -130 -12 -29 -13 -29 -17
-6 -6 39 5 64 52 111 44 45 78 62 106 53 8 -2 35 -7 60 -9z m-4130 -13 c0 -5
-9 -13 -20 -16 -20 -6 -20 -7 -1 -33 34 -49 59 -106 65 -152 l6 -45 -30 62
c-16 35 -50 85 -76 113 -26 28 -44 53 -41 56 6 6 61 21 85 23 6 1 12 -3 12 -8z
m164 -23 c14 -13 30 -36 35 -51 13 -35 14 -110 2 -103 -8 5 -24 88 -21 109 2
13 -41 47 -67 53 -12 4 -21 10 -18 14 9 14 43 3 69 -22z m3223 -74 c-3 -3 -12
-4 -19 -1 -8 3 -5 6 6 6 11 1 17 -2 13 -5z m-37 -27 c0 -7 -4 -6 -10 3 -5 8
-10 10 -10 4 0 -7 -10 -14 -22 -17 -22 -6 -22 -6 2 13 25 19 40 18 40 -3z
m936 15 c6 -4 14 -20 18 -37 10 -39 17 -307 9 -362 -5 -39 -8 -43 -34 -43 -31
0 -39 14 -14 24 12 4 15 26 16 108 0 57 4 124 8 151 6 36 5 47 -6 47 -7 0 -13
11 -13 24 0 21 -6 25 -32 28 -38 3 -48 27 -23 52 17 17 52 21 71 8z m-4344
-14 c9 -7 18 -22 20 -33 3 -18 -3 -20 -46 -20 l-50 0 -13 -44 c-8 -28 -9 -47
-3 -51 5 -3 12 -61 16 -128 6 -105 10 -125 26 -136 14 -10 15 -15 6 -18 -26
-10 -55 10 -62 42 -10 53 -7 328 4 335 6 3 10 19 10 36 0 27 3 29 38 29 21 0
45 -6 54 -12z m946 -12 c23 -10 42 -22 42 -27 0 -5 -17 -1 -39 10 -21 11 -42
17 -46 13 -5 -4 -5 -2 -2 5 4 6 2 14 -3 16 -21 11 6 1 48 -17z m92 1 c10 -4 8
-6 -6 -6 -12 -1 -25 6 -28 15 -5 13 -3 14 6 7 7 -6 20 -13 28 -16z m2030 -11
c-43 -41 -51 -63 -13 -39 26 17 27 17 20 0 -6 -15 1 -17 70 -17 50 0 74 -3 67
-10 -6 -6 -58 -7 -139 -2 l-130 7 27 25 c44 42 54 48 74 47 11 -1 18 3 17 8
-1 6 8 12 20 12 20 2 18 -2 -13 -31z m-1730 -12 c84 -46 87 -63 11 -61 -31 1
-87 -2 -126 -6 -84 -8 -125 7 -46 18 28 4 49 10 47 14 -3 4 12 5 32 3 37 -3
37 -3 16 15 -12 10 -30 24 -40 31 -17 11 -16 12 9 7 19 -4 26 -2 22 5 -10 17
4 12 75 -26z m-184 -12 c16 -10 17 -11 2 -12 -9 0 -20 5 -23 10 -3 6 -17 10
-30 10 -13 0 -26 4 -29 9 -7 11 53 -2 80 -17z m2289 -2 c-3 -5 -15 -10 -25
-10 -10 0 -22 -4 -25 -10 -8 -13 -35 -13 -35 -1 0 10 45 29 73 30 10 1 15 -3
12 -9z m-2476 -20 c8 -4 -7 -6 -35 -3 -27 3 -56 10 -64 15 -18 11 78 -1 99
-12z m92 2 c-7 -2 -18 1 -23 6 -8 8 -4 9 13 5 13 -4 18 -8 10 -11z m820 -219
c16 -41 22 -156 7 -147 -11 7 -9 -15 8 -73 4 -14 2 -23 -4 -23 -6 0 -11 8 -10
18 0 9 -7 55 -16 102 -18 98 -20 150 -6 150 6 0 15 -12 21 -27z m580 10 c0 -5
2 -21 4 -38 5 -40 -17 -175 -27 -169 -4 3 -8 -5 -8 -17 0 -12 -3 -19 -6 -16
-4 4 -6 41 -4 84 1 43 2 85 3 93 0 8 4 18 9 21 5 3 10 16 11 27 1 20 16 32 18
15z m833 -18 c-5 -12 0 -12 28 -5 45 13 45 13 17 -16 l-24 -26 39 16 c46 19
70 21 60 4 -5 -8 -2 -9 9 -5 48 19 51 19 27 -1 l-25 -21 24 6 c18 5 22 3 16
-7 -6 -10 -2 -11 19 -6 14 3 38 9 54 12 l27 5 -30 -26 c-16 -15 -44 -33 -62
-41 -39 -17 -56 -40 -22 -29 13 4 26 11 29 15 3 4 25 10 50 14 56 9 51 4 -29
-23 -59 -20 -65 -21 -82 -5 -17 16 -18 15 -14 -4 3 -15 -2 -19 -21 -19 -24 0
-24 0 -8 18 19 21 6 27 -14 7 -7 -7 -12 -8 -12 -2 0 5 -3 5 -8 -1 -9 -13 -98
-55 -115 -55 -7 0 -34 -13 -60 -30 -26 -16 -52 -30 -58 -30 -5 0 -21 -11 -35
-25 -15 -15 -30 -22 -41 -18 -14 5 -13 8 6 15 12 4 20 12 17 17 -6 9 -43 4
-61 -9 -5 -4 -27 -11 -49 -14 -56 -11 -77 -25 -63 -47 12 -19 67 -17 128 6 28
11 39 11 49 2 10 -9 11 -9 5 2 -5 9 -4 12 3 7 25 -15 9 -24 -65 -35 -118 -18
-134 -22 -127 -32 3 -5 14 -9 25 -9 12 0 17 4 13 11 -4 7 1 7 16 -1 12 -7 20
-8 16 -2 -3 6 12 8 42 4 91 -9 67 -24 -51 -31 -9 -1 -16 -7 -15 -13 2 -8 -11
-14 -32 -16 -50 -5 -68 -22 -39 -37 20 -11 18 -12 -22 -18 -57 -8 -126 2 -140
19 -9 11 -8 14 0 14 7 0 9 5 5 11 -4 8 -9 8 -17 0 -6 -6 -16 -11 -21 -11 -6 0
-4 4 4 10 12 7 12 13 1 33 -7 14 -10 30 -7 36 4 5 0 26 -8 46 -13 31 -7 50 9
25 10 -17 30 -11 40 12 12 25 71 42 180 52 88 8 198 59 246 114 19 21 49 55
66 76 18 21 39 39 45 40 7 1 24 9 38 19 30 21 31 21 24 2z m-2216 -35 c6 0 35
-28 64 -61 29 -34 70 -72 90 -85 61 -39 157 -65 264 -73 109 -8 139 -22 175
-80 32 -53 32 -69 3 -96 -15 -14 -21 -25 -13 -25 10 0 10 -3 1 -12 -6 -6 -17
-13 -24 -14 -7 -1 -37 -7 -67 -13 -75 -15 -101 -14 -101 5 0 8 5 12 10 9 6 -3
10 -1 10 4 0 14 -27 14 -35 1 -10 -16 -45 -12 -45 5 0 8 3 14 8 14 4 -1 23 -1
42 1 l35 1 -44 20 c-36 16 -51 18 -74 9 -41 -14 -46 -12 -22 6 19 15 18 16
-23 11 -24 -3 -40 -1 -36 4 3 5 14 9 25 9 10 0 19 5 19 11 0 8 6 7 17 -2 15
-12 16 -12 10 4 -7 18 -4 21 46 31 18 4 27 13 27 26 0 11 -4 20 -10 20 -5 0
-10 -4 -10 -10 0 -5 -5 -10 -11 -10 -5 0 -8 4 -5 9 6 9 -15 19 -111 51 -73 24
-85 25 -59 5 19 -14 19 -15 1 -15 -10 0 -45 17 -79 38 -65 40 -120 62 -152 61
-18 0 -18 -1 1 -9 15 -7 16 -9 4 -9 -9 -1 -22 6 -29 14 -14 17 -45 21 -35 5 9
-14 5 -13 -45 11 -35 17 -50 19 -75 12 -24 -8 -37 -7 -50 3 -10 8 -30 14 -44
15 -16 0 -20 3 -11 6 8 3 18 10 21 15 4 6 22 13 40 17 l34 7 -30 17 c-18 10
-24 16 -14 17 9 0 49 7 88 16 47 11 69 20 64 28 -5 8 -3 8 8 0 14 -12 78 -15
77 -5 -2 20 5 20 31 2 16 -12 34 -21 39 -21z m2032 -8 c0 -5 -13 -29 -30 -54
-59 -90 -212 -137 -290 -89 -19 11 -31 21 -26 21 6 0 1 6 -10 14 -10 8 -16 18
-12 22 4 4 14 2 21 -4 7 -6 30 -10 50 -9 22 2 42 -2 48 -10 15 -17 39 -17 39
1 0 8 10 14 24 14 33 0 127 47 151 77 20 25 35 32 35 17z m-1825 -42 c7 0 15
-3 17 -8 2 -4 35 -24 73 -44 57 -30 74 -35 90 -26 11 6 22 15 25 19 9 13 138
16 133 3 -7 -18 -86 -54 -133 -61 -98 -14 -210 29 -261 99 -38 54 -37 65 7 39
19 -12 41 -21 49 -21z m2284 -63 c12 4 13 3 5 -6 -12 -13 -44 -5 -44 12 0 8 3
8 11 0 6 -6 19 -9 28 -6z m-1399 -107 c5 0 10 9 10 19 0 26 10 51 21 51 14 0
79 -70 79 -85 0 -8 -5 -26 -12 -40 -11 -24 -9 -29 12 -46 31 -23 41 -24 33 -3
-3 9 5 5 20 -10 30 -30 56 -98 39 -104 -6 -2 -8 -10 -5 -18 3 -8 -1 -14 -9
-14 -9 0 -13 -11 -12 -35 1 -19 -2 -32 -7 -29 -5 3 -7 9 -4 13 2 5 -2 17 -10
27 -19 27 -42 6 -26 -24 6 -11 11 -32 11 -45 0 -13 11 -40 24 -60 24 -35 24
-36 3 -28 -13 5 -30 4 -42 -3 -13 -8 -64 -11 -152 -8 -111 3 -132 6 -138 20
-3 9 -1 18 4 20 6 2 11 12 11 23 0 26 42 91 70 110 17 11 21 20 16 37 -8 24
-40 30 -50 10 -34 -69 -61 -89 -76 -58 -17 34 -28 80 -19 80 10 0 49 77 49 97
0 7 5 13 10 13 6 0 10 -4 10 -10 0 -5 9 -10 20 -10 17 0 18 3 10 26 -16 42
-11 73 15 100 14 14 25 28 25 32 0 5 6 14 12 20 10 10 16 5 30 -28 9 -22 22
-40 28 -40z m1172 68 c-9 -9 -15 -9 -24 0 -9 9 -7 12 12 12 19 0 21 -3 12 -12z
m-2082 -148 c0 -5 -9 -10 -19 -10 -11 0 -23 5 -26 10 -4 6 5 10 19 10 14 0 26
-4 26 -10z m-1245 -37 c-1 -21 2 -41 7 -44 7 -4 6 -14 -1 -28 -11 -19 -10 -20
20 -14 29 6 31 5 24 -18 -4 -13 -13 -26 -19 -28 -6 -2 5 -10 24 -17 33 -12 31
-13 -49 -13 l-84 -1 28 22 c23 18 26 27 22 54 -3 19 -1 36 4 39 5 4 9 24 9 46
0 21 4 39 9 39 5 0 8 -17 6 -37z m1300 17 c8 -13 -5 -13 -25 0 -13 8 -13 10 2
10 9 0 20 -4 23 -10z m-68 -36 c-3 -3 -12 -4 -19 -1 -8 3 -5 6 6 6 11 1 17 -2
13 -5z m3009 -49 c10 -8 14 -15 7 -15 -25 0 4 -44 38 -56 l34 -12 -55 -1 c-30
0 -64 4 -74 8 -19 7 -19 8 3 14 20 5 21 8 11 27 -12 22 -7 50 8 50 4 0 17 -7
28 -15z m-2849 -1 c-3 -3 -12 -4 -19 -1 -8 3 -5 6 6 6 11 1 17 -2 13 -5z m289
-116 c-4 -36 -32 -72 -76 -97 -22 -12 -40 -26 -40 -30 0 -4 -21 -6 -46 -4 -26
2 -52 -1 -61 -8 -11 -10 -14 -9 -11 2 2 8 12 17 23 21 12 5 5 6 -20 4 -37 -3
-38 -3 -12 7 15 6 27 15 27 20 0 4 -4 5 -10 2 -5 -3 -10 -2 -10 4 0 15 186 98
227 100 6 1 11 -9 9 -21z m1059 -16 c28 -14 60 -30 72 -36 13 -6 23 -15 23
-20 0 -5 8 -18 17 -28 16 -18 16 -18 -2 -12 -13 6 -16 4 -10 -6 6 -10 -7 -12
-62 -8 -65 3 -72 6 -110 43 -26 26 -39 47 -37 60 1 10 -2 25 -7 32 -18 20 60
4 116 -25z m1510 28 c8 -13 -25 -13 -45 0 -12 8 -9 10 12 10 15 0 30 -4 33
-10z m-4179 -25 c12 -30 -6 -82 -32 -93 -30 -14 -78 -16 -69 -3 3 5 0 22 -7
36 -11 25 -10 30 15 51 32 27 84 32 93 9z m4177 -47 c-20 -23 -53 -7 -53 26 0
34 10 38 40 13 25 -20 26 -24 13 -39z m-2509 -23 c-4 -8 -1 -15 6 -15 7 0 11
-13 10 -32 -3 -47 -3 -47 35 -38 44 10 45 3 2 -15 -39 -16 -182 -14 -200 4 -9
9 -7 13 11 17 12 4 19 10 17 15 -3 4 3 12 12 18 10 6 13 11 8 11 -6 0 -27 -14
-47 -30 -20 -17 -39 -26 -42 -21 -7 10 86 71 108 71 7 0 19 7 26 15 7 8 23 15
36 15 17 0 22 -4 18 -15z m894 -15 c27 -16 54 -30 59 -30 5 0 10 -6 10 -14 0
-8 -7 -12 -16 -9 -9 2 -5 -2 8 -10 31 -19 17 -26 -63 -34 -85 -8 -97 -3 -86
36 5 17 5 31 0 31 -9 0 -7 15 5 43 10 24 27 21 83 -13z m1612 -15 c0 -3 -12
-5 -27 -4 -16 0 -22 3 -15 6 6 2 9 9 6 15 -4 6 2 5 15 -1 11 -7 21 -14 21 -16z
m-4140 -10 c0 -3 -9 -16 -21 -28 l-20 -22 35 -3 c20 -2 36 -7 36 -11 0 -17
-41 -50 -70 -56 -16 -4 -28 -11 -24 -16 5 -9 -15 -19 -66 -33 -23 -7 -23 -6 5
13 27 19 28 21 8 21 -12 0 -25 5 -28 10 -3 6 -2 10 4 10 16 0 23 37 12 59 -6
11 -23 21 -38 23 -18 2 0 9 52 20 88 18 115 21 115 13z m1397 -21 c-3 -3 -12
-4 -19 -1 -8 3 -5 6 6 6 11 1 17 -2 13 -5z m2728 -22 c29 -15 29 -15 7 -23
-17 -6 -29 -2 -54 22 -31 29 -32 31 -8 24 14 -4 38 -14 55 -23z m-1941 -44
c33 -35 0 -43 -169 -38 -115 4 -115 4 -115 23 0 11 5 17 13 14 6 -2 23 5 36
15 22 17 36 18 120 12 77 -5 100 -11 115 -26z m298 -52 c4 -7 -3 -14 -17 -19
-16 -6 -22 -14 -20 -28 2 -10 1 -19 -4 -19 -4 0 -7 -12 -6 -27 0 -22 8 -32 35
-45 32 -15 41 -15 100 -2 80 17 297 16 360 -3 43 -13 41 -13 -47 -8 -108 6
-126 -9 -24 -19 68 -6 137 -24 98 -25 -10 -1 -16 -5 -13 -10 11 -17 -37 -20
-153 -10 -120 10 -356 -4 -367 -22 -3 -5 -1 -9 5 -9 5 0 16 -6 23 -13 7 -7 47
-18 88 -25 41 -6 86 -14 100 -17 22 -5 125 -8 173 -6 10 1 16 5 13 9 -6 11
101 -5 123 -18 12 -7 8 -10 -19 -10 l-35 -1 33 -14 c17 -8 32 -16 32 -17 0
-12 -161 12 -184 27 -15 10 -29 15 -32 12 -3 -3 38 -26 91 -52 93 -46 124 -70
54 -42 -19 8 -43 18 -54 22 -11 4 -24 9 -30 10 -5 2 -37 12 -70 23 -37 12 -77
18 -105 15 -25 -2 -52 -3 -60 -3 -8 0 -87 1 -175 2 -93 0 -165 5 -173 11 -7 5
-22 10 -34 11 -21 1 -39 26 -19 26 6 0 11 6 11 14 0 8 7 17 15 20 12 4 13 10
6 24 -6 11 -8 36 -4 56 3 20 1 36 -4 36 -5 0 -9 9 -10 19 -1 14 19 34 68 67
38 26 77 48 87 49 26 2 42 14 42 34 0 37 22 42 59 14 20 -15 39 -32 43 -37z
m-773 17 c10 -20 24 -33 36 -33 24 0 80 -32 118 -68 15 -14 27 -22 27 -17 0 5
7 0 15 -12 14 -20 14 -24 -4 -42 -16 -16 -18 -26 -11 -48 4 -15 13 -45 20 -65
6 -21 8 -42 5 -48 -4 -6 -28 -22 -55 -35 -52 -26 -80 -60 -57 -68 6 -2 1 -2
-11 0 -17 3 -22 0 -16 -9 4 -7 3 -10 -1 -5 -5 4 -18 1 -29 -6 -33 -21 -55 -27
-61 -17 -6 10 54 52 65 45 3 -2 26 14 51 35 l44 39 -35 -4 c-19 -2 -35 -4 -35
-5 0 -1 -234 -2 -283 -1 -19 1 -31 5 -27 11 8 12 11 13 -55 -5 -68 -18 -71
-18 -40 1 18 11 19 13 5 9 -11 -4 -38 -10 -60 -15 -124 -27 -175 -40 -224 -59
-29 -12 -56 -20 -58 -17 -5 5 78 43 114 52 35 9 48 30 26 43 -14 8 -8 10 27 8
25 -1 56 2 70 6 18 6 21 5 10 -2 -27 -18 -5 -20 64 -6 38 8 72 12 77 10 4 -3
10 -1 13 4 3 5 30 12 59 15 118 15 127 17 127 35 0 9 5 22 12 29 9 9 -8 12
-78 14 -151 3 -176 2 -283 -6 -71 -6 -102 -5 -97 2 3 6 -2 12 -11 15 -30 7 32
27 85 28 26 0 67 4 92 8 33 6 5 9 -110 11 -130 2 -147 4 -105 12 64 12 339 15
426 5 60 -7 68 -5 92 16 31 26 35 39 10 30 -10 -4 -14 -2 -9 5 3 6 -3 12 -16
15 -20 3 -19 5 10 12 32 8 40 19 22 30 -5 3 -10 1 -10 -4 0 -6 -7 -11 -15 -11
-8 0 -12 6 -9 13 3 8 -5 18 -16 23 -21 9 -20 11 17 37 46 33 62 32 82 -10z
m2423 -28 c33 -14 33 -14 6 -15 -19 0 -26 -4 -22 -14 3 -8 -3 -23 -14 -34 -18
-18 -18 -21 -5 -26 12 -5 13 -9 3 -21 -7 -8 -9 -15 -4 -15 5 0 3 -4 -5 -9 -12
-8 -12 -12 -2 -25 11 -13 11 -19 0 -33 -8 -9 -13 -24 -11 -33 3 -21 -33 -33
-59 -20 -13 7 -17 6 -15 -5 1 -8 5 -18 9 -21 12 -13 7 -34 -8 -34 -8 0 -15 -4
-15 -10 0 -5 7 -10 15 -10 8 0 15 -4 15 -10 0 -5 7 -10 15 -10 20 0 19 -10 -2
-26 -10 -7 -13 -14 -7 -14 7 0 19 -12 29 -26 9 -15 12 -23 6 -20 -6 4 -11 0
-11 -9 0 -9 4 -14 9 -11 12 8 41 -3 41 -15 0 -5 -9 -9 -20 -9 -11 0 -20 -4
-20 -10 0 -5 4 -10 10 -10 5 0 6 -7 3 -17 -4 -10 -2 -14 5 -9 7 4 10 -1 7 -15
-3 -14 2 -23 15 -26 23 -6 35 -34 18 -44 -6 -4 -16 -5 -20 -3 -4 3 -8 0 -8 -5
0 -6 9 -11 20 -11 27 0 25 -17 -2 -26 -22 -7 -22 -7 -3 -14 14 -6 25 -2 37 13
22 28 32 18 12 -11 -8 -12 -25 -22 -37 -22 -20 -1 -20 -2 -4 -11 16 -10 16
-12 -3 -40 -12 -16 -26 -29 -32 -29 -6 0 -5 7 3 18 10 14 9 13 -7 -2 -13 -13
-15 -20 -6 -23 6 -3 12 -14 12 -25 0 -12 -5 -18 -12 -16 -7 3 -20 -3 -30 -13
-15 -16 -14 -19 13 -44 16 -14 27 -30 24 -35 -3 -6 1 -7 9 -4 9 3 16 2 16 -4
0 -5 -10 -8 -22 -7 -13 1 -33 3 -45 4 -14 0 -23 7 -23 17 0 14 3 14 15 4 23
-19 18 3 -6 29 -26 28 -30 24 -22 -23 6 -40 38 -62 73 -51 10 3 21 1 25 -5 13
-20 31 -9 48 31 15 34 21 39 40 33 18 -5 20 -4 10 7 -21 21 -15 28 17 19 27
-8 33 -6 32 11 0 3 19 11 44 18 42 13 60 31 30 31 -8 0 -16 6 -18 13 -6 16 18
61 26 49 3 -6 2 -13 -4 -17 -15 -9 -12 -28 3 -22 7 3 21 -1 31 -9 14 -10 22
-10 37 -1 15 9 21 9 28 -1 6 -10 12 -10 32 0 20 11 22 17 14 36 -6 14 -16 21
-26 19 -9 -2 -21 4 -28 15 -17 28 16 38 38 12 9 -11 27 -20 41 -19 32 1 121
46 114 57 -11 18 16 7 29 -12 12 -17 16 -18 33 -6 17 13 21 12 38 -2 18 -16
18 -16 12 6 -7 21 -6 22 21 10 15 -6 32 -15 37 -20 5 -4 16 -2 24 4 10 9 16 8
23 -3 8 -12 10 -12 18 0 5 7 13 11 19 7 6 -3 18 4 27 16 10 15 18 19 23 12 6
-9 55 -26 84 -28 3 -1 10 -4 14 -8 4 -4 13 0 19 9 11 15 15 15 30 3 20 -16 45
-22 45 -10 0 5 12 7 28 6 15 -2 33 1 40 6 8 8 12 6 12 -4 0 -8 12 -15 31 -16
26 -2 30 0 24 18 -10 31 9 24 23 -10 8 -16 10 -35 6 -42 -6 -10 -4 -11 7 0 19
18 47 15 58 -6 13 -24 2 -37 -29 -37 -16 0 -25 -6 -25 -16 0 -22 -24 -49 -44
-49 -13 -1 -13 -3 3 -15 11 -8 14 -15 8 -15 -7 0 -12 -7 -12 -15 0 -18 -5 -18
-31 -5 -24 14 -24 34 0 51 15 11 17 19 10 37 -10 26 -28 28 -55 6 -13 -11 -15
-17 -6 -20 20 -9 14 -33 -8 -31 -13 1 -23 11 -27 24 -5 22 -6 22 -18 7 -8 -11
-20 -15 -34 -11 -13 3 -30 -2 -44 -14 -20 -18 -21 -20 -4 -29 19 -12 23 -30 6
-30 -6 0 -23 9 -39 20 -15 11 -31 16 -35 12 -5 -4 -5 -2 -1 5 3 6 -2 16 -11
22 -10 6 -14 11 -9 11 5 0 3 6 -3 14 -9 11 -19 12 -47 3 l-35 -11 36 -36 35
-36 -24 -23 -24 -22 -22 35 c-18 30 -27 36 -56 36 l-35 0 33 -30 c29 -27 30
-30 11 -30 -12 0 -24 6 -26 13 -4 9 -8 8 -16 -3 -9 -13 -11 -13 -11 1 0 9 -6
16 -12 17 -98 15 -101 15 -95 -2 9 -22 -30 -22 -62 0 -21 15 -24 15 -41 -4
-14 -15 -16 -22 -7 -31 9 -9 8 -14 -3 -21 -13 -8 -12 -10 3 -10 15 0 21 -10
15 -27 -2 -3 -32 -5 -68 -4 -36 1 -78 -3 -95 -7 -29 -9 -28 -9 20 -16 28 -4
58 -11 68 -17 12 -6 17 -6 17 3 0 9 3 9 13 -1 10 -10 7 -16 -13 -31 -21 -16
-26 -16 -33 -5 -6 11 -28 14 -82 14 -79 -1 -95 4 -95 27 0 12 5 12 37 -1 20
-8 38 -13 41 -10 8 7 5 8 -86 45 -45 18 -86 30 -89 26 -4 -3 1 -6 9 -6 8 0 27
-11 41 -24 28 -26 27 -56 -2 -56 -21 -1 46 -32 84 -40 17 -3 29 -11 28 -18 -4
-15 12 -15 39 -1 15 8 19 8 13 -1 -5 -8 0 -11 16 -9 13 2 30 0 36 -4 9 -6 11
-3 7 7 -5 13 5 12 65 -4 39 -11 73 -20 76 -20 3 0 5 -5 5 -11 0 -11 -66 -7
-221 15 -89 13 -176 8 -171 -9 1 -6 41 -11 90 -11 48 -1 96 -5 106 -10 19 -7
19 -8 0 -14 -10 -4 -23 -5 -29 -2 -17 10 -95 10 -89 0 4 -6 -3 -8 -17 -4 -31
9 -4 -9 30 -19 16 -5 21 -4 17 4 -4 6 -1 11 7 11 8 0 14 -7 13 -16 -1 -10 35
-35 98 -71 89 -49 105 -55 144 -50 36 4 42 2 39 -12 -2 -9 -9 -15 -15 -14 -23
5 -12 -18 14 -27 19 -7 31 -7 40 1 19 16 17 30 -3 27 -10 -2 -19 4 -21 15 -2
9 0 17 5 17 18 -1 36 -20 38 -41 1 -13 7 -25 15 -27 7 -3 10 0 6 7 -10 15 7
14 23 -1 10 -10 15 -10 18 -1 3 8 10 8 29 -1 14 -8 43 -11 72 -8 148 14 196 0
208 -64 4 -22 2 -40 -5 -47 -9 -9 -6 -16 11 -29 13 -10 16 -16 7 -13 -12 4
-15 -2 -15 -27 1 -24 -4 -34 -18 -36 -13 -3 -16 0 -11 9 6 9 3 11 -9 6 -14 -6
-15 -3 -5 14 10 20 8 20 -33 18 -35 -3 -43 0 -42 14 3 27 -9 21 -77 -46 -60
-60 -139 -171 -139 -196 0 -12 36 -29 84 -38 24 -5 28 -3 23 10 -9 23 17 39
60 36 21 -2 45 1 53 6 9 5 15 4 18 -4 3 -8 9 -5 19 8 17 25 33 27 33 5 0 -13
7 -15 33 -11 28 5 29 5 10 -5 -13 -6 -23 -16 -23 -21 0 -6 3 -7 6 -4 4 4 20
-3 35 -14 16 -11 29 -17 29 -12 0 4 5 0 11 -9 12 -21 35 -24 43 -5 2 6 4 1 3
-13 -2 -19 3 -25 20 -25 12 0 33 -11 46 -24 14 -12 30 -20 36 -16 6 3 11 0 11
-8 0 -8 15 -20 33 -27 17 -7 38 -20 44 -28 11 -14 15 -13 34 4 11 10 20 14 19
9 -8 -37 1 -45 45 -45 25 0 45 5 45 10 0 6 7 10 15 10 27 0 16 -18 -15 -25
-37 -8 -44 -19 -28 -44 22 -36 63 -46 110 -28 22 9 45 14 49 11 16 -9 10 -32
-12 -47 -20 -14 -19 -16 23 -50 24 -19 63 -47 88 -62 85 -52 155 -100 163
-112 4 -7 13 -13 20 -13 7 0 20 -12 30 -26 15 -19 16 -28 7 -39 -16 -19 -6
-32 31 -40 43 -10 30 -30 -21 -30 l-42 0 5 -62 c5 -52 4 -63 -9 -63 -31 0 -23
-31 41 -146 36 -65 65 -124 65 -130 0 -6 11 -23 25 -38 14 -15 34 -48 45 -74
33 -74 98 -199 153 -291 42 -70 48 -87 39 -102 -11 -18 -9 -18 38 1 61 24 77
26 60 5 -17 -21 -250 -151 -250 -139 0 2 -40 -27 -89 -64 -50 -37 -115 -80
-146 -96 -32 -16 -53 -31 -47 -35 6 -4 4 -11 -4 -19 -13 -12 -18 -8 -15 11 0
4 -3 7 -8 7 -8 0 -143 -60 -184 -81 -17 -9 -17 -8 -3 20 13 23 33 36 98 61 46
17 101 38 123 47 68 29 226 126 269 166 45 42 59 48 30 15 l-19 -23 22 19 c13
10 20 22 18 27 -3 4 1 14 9 22 8 8 12 17 9 21 -6 6 12 10 30 7 7 -1 -43 94
-70 134 -14 19 -14 19 -11 1 2 -10 -3 -21 -9 -23 -15 -5 -17 11 -4 35 11 20
-45 136 -66 138 -7 1 -20 2 -28 3 -16 1 -115 97 -115 111 0 16 13 12 62 -19
40 -26 45 -27 41 -10 -3 11 -14 26 -25 33 -14 10 -16 15 -6 20 9 4 7 10 -9 22
-24 17 -31 44 -13 44 16 0 -14 52 -49 83 -17 15 -35 27 -41 27 -10 0 -18 25
-22 75 -2 17 -7 30 -13 30 -11 0 -34 -93 -36 -150 0 -22 -7 -74 -14 -115 -8
-41 -17 -102 -20 -134 -13 -116 -24 -103 -22 26 1 90 -1 124 -9 117 -6 -5 -14
-5 -19 -1 -4 4 -5 -9 -2 -28 2 -20 -1 -47 -10 -63 -7 -15 -11 -32 -8 -37 3 -6
-5 -15 -20 -22 -19 -8 -24 -16 -19 -31 4 -12 2 -17 -4 -13 -6 4 -16 -2 -21
-13 -6 -11 -20 -22 -30 -26 -11 -3 -18 -12 -15 -19 3 -8 -8 -29 -23 -47 -28
-33 -93 -134 -122 -191 -8 -16 -18 -28 -23 -28 -4 0 6 24 22 53 17 28 32 57
33 62 2 6 10 26 17 45 7 19 15 49 18 65 3 17 12 41 21 54 9 14 25 47 36 74 12
29 34 60 55 76 18 14 31 21 27 15 -3 -6 5 -16 20 -23 24 -11 25 -10 19 11 -3
13 -6 32 -6 43 0 16 -2 17 -10 5 -8 -12 -10 -12 -16 3 -4 11 -1 23 6 30 10 9
11 9 5 -2 -5 -9 -4 -12 3 -8 5 4 8 15 5 26 -2 10 9 40 25 67 56 92 92 244 56
237 -6 -1 -17 9 -24 22 -13 25 -40 34 -40 15 0 -5 -8 -10 -18 -10 -11 0 -24
-11 -30 -25 -7 -15 -17 -22 -25 -19 -17 6 -43 52 -34 60 3 4 2 15 -4 26 -8 16
-13 17 -25 7 -8 -6 -17 -9 -21 -5 -3 3 0 6 8 6 12 0 12 2 0 9 -10 6 -22 5 -35
-4 -17 -13 -21 -12 -34 6 -11 15 -11 23 -2 34 9 11 9 18 -4 30 -9 9 -16 22
-16 28 0 8 3 8 9 -1 6 -11 10 -10 15 4 8 21 -9 37 -66 62 -21 9 -38 20 -38 24
0 4 -15 -8 -34 -27 -19 -18 -44 -60 -56 -92 -28 -76 -58 -230 -52 -271 2 -20
0 -32 -7 -32 -14 0 -14 99 -1 155 6 22 13 55 16 73 3 19 11 50 19 71 15 44 14
87 -3 83 -7 -1 -12 5 -12 13 0 8 -7 15 -16 15 -10 0 -14 -6 -10 -15 3 -8 1
-15 -4 -15 -6 0 -10 -11 -10 -25 0 -29 -8 -32 -26 -8 -8 12 -9 22 -3 29 11 14
-35 48 -54 40 -7 -2 -4 -5 6 -5 15 -1 15 -3 -3 -21 -26 -26 -44 -27 -31 -2 13
25 3 62 -15 55 -17 -6 -18 9 -2 25 10 10 10 15 -2 22 -13 9 -13 11 0 20 8 5
11 10 5 10 -18 0 -30 -15 -33 -40 -2 -14 -12 -37 -22 -51 -14 -20 -16 -29 -7
-38 8 -8 8 -11 0 -11 -17 0 -23 28 -13 55 5 14 6 25 2 25 -11 0 -34 58 -30 77
3 12 12 17 26 16 14 -2 21 1 17 7 -4 6 -14 10 -23 8 -10 -1 -22 1 -29 5 -6 4
-15 2 -19 -4 -5 -8 -3 -9 6 -4 8 5 11 4 7 -3 -14 -21 -44 -1 -45 29 -1 36 14
44 63 30 21 -5 35 -7 31 -4 -3 3 0 13 6 22 7 9 9 13 4 9 -5 -4 -22 0 -39 8
-28 15 -29 18 -22 62 12 74 14 118 4 133 -6 10 -9 3 -9 -21 0 -42 -21 -75 -60
-95 -40 -21 -60 -19 -60 5 0 14 7 20 21 20 11 0 34 13 50 29 25 25 27 33 19
58 -6 15 -25 43 -42 62 -34 36 -172 106 -188 96 -21 -13 -8 -56 45 -140 30
-48 55 -94 55 -103 0 -47 -68 -65 -151 -40 -48 14 -122 75 -115 94 3 7 -1 29
-9 48 -22 53 -20 96 5 96 15 0 20 -7 20 -25 0 -18 4 -23 15 -19 12 5 15 -4 15
-48 0 -65 15 -89 75 -117 52 -25 93 -27 101 -6 8 19 -47 116 -105 185 -44 53
-32 53 17 0 21 -23 22 -23 13 -3 -23 45 -4 109 54 188 22 29 34 55 31 65 0 3
5 12 11 20 45 53 66 83 56 76 -9 -5 -12 -1 -10 15 2 17 -4 22 -30 25 -27 3
-40 -4 -87 -47 -30 -27 -58 -59 -61 -69 -6 -18 -14 -19 -88 -15 -166 8 -367
39 -367 57 0 4 7 8 15 8 8 0 15 5 15 11 0 5 -5 7 -12 3 -7 -5 -8 -3 -3 5 4 8
-2 25 -15 43 -26 35 -22 42 14 28 15 -5 39 -10 54 -9 25 0 26 1 6 9 -24 9 -41
30 -25 30 5 0 13 -4 16 -10 3 -5 15 -10 27 -10 16 0 19 -5 14 -23 -10 -43 19
-62 91 -58 13 1 22 7 20 14 -4 20 35 7 71 -25 59 -51 118 -24 65 31 -13 13
-23 34 -23 46 0 54 -95 102 -275 140 l-70 15 -25 -30 c-27 -32 -46 -40 -36
-15 9 24 -24 32 -40 10 -8 -10 -15 -16 -15 -12 -1 4 -2 11 -3 17 0 5 -13 21
-28 34 -22 22 -25 30 -18 58 4 18 17 52 29 75 12 23 21 46 21 51 0 5 -18 22
-40 37 -45 31 -45 30 -26 76 27 67 28 87 4 108 -25 24 -30 65 -12 103 8 14 10
28 6 31 -4 2 -1 2 6 1 7 -2 17 7 22 20 5 13 14 27 20 31 12 7 4 25 -12 25 -5
0 -8 -7 -4 -15 3 -10 -1 -15 -13 -15 -19 0 -55 -33 -46 -42 4 -3 -10 -8 -29
-10 -32 -4 -41 3 -35 25 0 1 -5 15 -11 31 -10 27 -8 32 31 72 36 37 39 42 18
37 -21 -6 -22 -4 -11 9 13 16 6 52 -8 43 -14 -9 -21 12 -14 40 3 14 13 25 22
25 9 0 30 16 48 36 32 34 33 37 18 60 -20 29 -40 31 -47 4 -3 -13 -10 -18 -21
-14 -20 8 -21 34 -1 34 12 0 13 4 5 19 -15 30 -13 34 20 28 33 -7 36 -1 15 27
-22 29 -18 39 10 32 15 -4 25 -2 25 5 0 6 -9 13 -20 16 -13 4 -20 14 -20 30 0
23 3 25 30 20 33 -7 39 3 15 23 -12 10 -13 15 -3 21 9 6 8 12 -5 27 -24 27
-21 34 12 27 35 -8 52 12 27 31 -16 11 -16 13 6 16 24 4 25 8 14 45 -5 16 -2
23 14 28 20 7 21 7 3 22 -16 13 -15 14 19 8 21 -3 52 -12 70 -20z m-4042 -11
c0 -4 -8 -13 -17 -20 -17 -13 -17 -15 0 -28 18 -14 18 -15 -3 -36 -26 -26 -16
-44 20 -36 22 4 27 1 26 -12 -1 -11 8 -18 22 -20 21 -3 32 -22 12 -22 -5 0
-10 -9 -10 -20 0 -17 7 -20 53 -20 37 0 48 -3 37 -10 -12 -8 -10 -10 10 -10
l24 0 -21 -22 c-14 -13 -33 -21 -53 -20 -41 1 -50 10 -25 24 17 10 15 12 -20
22 -31 9 -44 20 -57 46 -25 51 -35 60 -69 60 -22 0 -32 -6 -41 -25 -16 -36
-32 -26 -36 23 -3 41 -4 42 -40 42 -25 0 -33 3 -23 9 8 5 12 18 9 29 -5 17 1
22 36 31 73 19 166 27 166 15z m2426 -33 c-5 -8 -56 -3 -56 5 0 2 14 4 31 4
16 0 28 -4 25 -9z m-1307 -25 c-10 -10 -139 -16 -139 -7 0 7 28 11 72 11 39 0
69 -2 67 -4z m1836 -6 c45 -7 41 -7 -42 -9 -52 0 -95 3 -98 9 -7 12 66 12 140
0z m-2097 -7 c-10 -2 -26 -2 -35 0 -10 3 -2 5 17 5 19 0 27 -2 18 -5z m-973
-143 c-8 -13 55 -60 81 -60 28 0 30 -11 9 -44 -9 -13 -14 -30 -13 -37 4 -17
-31 -24 -45 -10 -8 8 -8 14 1 23 19 19 15 48 -8 48 -13 0 -20 7 -20 19 0 11
-4 21 -8 23 -5 2 -12 15 -16 30 -5 22 -3 26 9 22 8 -3 13 -10 10 -14z m370
-39 c-20 -19 -114 -61 -136 -61 -23 1 -23 1 -4 13 21 13 124 54 140 56 5 1 5
-2 0 -8z m820 -71 c-11 -5 -27 -9 -35 -9 -9 0 -8 4 5 9 11 5 27 9 35 9 9 0 8
-4 -5 -9z m2915 -9 c0 -6 -4 -13 -10 -16 -5 -3 -10 1 -10 9 0 9 5 16 10 16 6
0 10 -4 10 -9z m-2795 -36 c-22 -13 -33 -24 -25 -24 8 0 24 6 34 14 22 17 40
20 31 6 -3 -5 3 -12 12 -14 13 -3 10 -5 -7 -6 -16 -1 -20 -4 -13 -9 8 -5 -6
-18 -40 -37 -33 -18 -47 -23 -38 -12 24 29 5 30 -55 3 -31 -15 -59 -25 -61
-23 -2 2 24 16 57 31 66 30 76 41 31 34 -17 -2 -28 -1 -25 4 3 4 10 8 16 8 6
0 19 6 27 14 15 13 66 34 86 35 6 1 -8 -10 -30 -24z m3085 9 c0 -8 -4 -12 -10
-9 -5 3 -10 10 -10 16 0 5 5 9 10 9 6 0 10 -7 10 -16z m-1942 -20 c5 3 15 0
21 -8 9 -11 9 -15 -1 -19 -15 -5 -68 30 -68 45 0 6 9 3 19 -6 11 -10 24 -15
29 -12z m95 9 c-7 -2 -19 -2 -25 0 -7 3 -2 5 12 5 14 0 19 -2 13 -5z m277 -10
c25 -10 59 -27 77 -39 17 -11 57 -31 87 -44 31 -12 56 -26 56 -30 0 -5 -35 6
-77 25 -43 18 -104 43 -135 55 -57 22 -95 50 -67 50 7 0 34 -8 59 -17z m1340
13 c0 -3 -4 -8 -10 -11 -5 -3 -10 -1 -10 4 0 6 5 11 10 11 6 0 10 -2 10 -4z
m625 -6 c3 -5 2 -10 -4 -10 -5 0 -13 5 -16 10 -3 6 -2 10 4 10 5 0 13 -4 16
-10z m-4685 -19 c0 -11 -6 -21 -12 -24 -10 -3 -9 -9 3 -23 14 -16 59 -108 59
-121 0 -2 -9 1 -19 7 -29 15 -29 14 -37 -37 -7 -52 -23 -92 -24 -61 0 10 -11
20 -26 24 l-25 6 29 18 c21 13 29 26 30 49 0 22 -4 31 -15 31 -11 0 -13 4 -5
13 16 20 20 76 5 81 -10 4 -10 11 -1 31 13 29 38 33 38 6z m1645 11 c-18 -15
-65 -32 -65 -23 0 4 -12 6 -26 3 -20 -4 -25 -2 -19 7 4 7 18 11 31 8 14 -2 27
0 30 4 3 5 17 9 32 9 14 0 22 -4 17 -8z m640 -6 c6 0 17 -8 27 -17 15 -16 14
-18 -18 -23 -34 -7 -74 6 -74 24 0 5 8 6 18 3 15 -6 16 -5 2 12 -14 17 -13 17
10 10 14 -5 30 -8 35 -9z m-927 -40 c-23 -17 -109 -54 -98 -43 22 22 84 55 93
50 5 -3 7 -6 5 -7z m1334 1 c15 -12 14 -14 -13 -24 -30 -11 -41 -5 -45 25 -3
16 36 15 58 -1z m-1422 -1 c0 -2 -9 -6 -20 -9 -11 -3 -20 -1 -20 4 0 5 9 9 20
9 11 0 20 -2 20 -4z m2530 -16 c0 -21 -24 -28 -35 -10 -8 14 3 30 21 30 8 0
14 -9 14 -20z m-1234 -31 c19 -22 19 -22 -3 -10 -24 12 -39 31 -25 31 5 0 17
-10 28 -21z m69 1 c3 -6 -1 -7 -9 -4 -18 7 -21 14 -7 14 6 0 13 -4 16 -10z
m-1625 -14 c0 -7 -113 -66 -118 -62 -2 3 22 18 54 35 65 33 64 33 64 27z
m3410 -6 c0 -5 -2 -10 -4 -10 -3 0 -8 5 -11 10 -3 6 -1 10 4 10 6 0 11 -4 11
-10z m-3330 -5 c0 -2 -10 -9 -22 -15 -22 -11 -22 -10 -4 4 21 17 26 19 26 11z
m2640 -5 c0 -5 -2 -10 -4 -10 -3 0 -8 5 -11 10 -3 6 -1 10 4 10 6 0 11 -4 11
-10z m-2850 -5 c0 -2 -10 -9 -22 -15 -22 -11 -22 -10 -4 4 21 17 26 19 26 11z
m2131 -22 c27 -14 47 -28 45 -30 -4 -4 -66 26 -96 46 -30 21 3 10 51 -16z
m-1971 3 c0 -2 -39 -27 -87 -56 -49 -29 -97 -60 -107 -69 -11 -9 -16 -10 -12
-4 7 13 76 60 156 107 47 27 50 28 50 22z m-210 -10 c0 -2 -18 -15 -40 -30
-22 -14 -40 -24 -40 -22 0 5 71 56 77 56 2 0 3 -2 3 -4z m2867 -2 c-3 -3 -12
-4 -19 -1 -8 3 -5 6 6 6 11 1 17 -2 13 -5z m-2817 -19 c0 -2 -24 -17 -52 -31
-59 -29 -59 -23 -1 12 37 23 53 29 53 19z m3400 -25 c0 -5 -4 -10 -10 -10 -5
0 -10 5 -10 10 0 6 5 10 10 10 6 0 10 -4 10 -10z m-1507 -16 c100 -51 199
-154 217 -228 6 -22 15 -50 20 -61 13 -30 18 -75 9 -75 -5 0 -9 7 -9 15 0 9
-9 44 -20 79 -17 53 -32 74 -93 134 -40 39 -93 87 -119 107 -63 48 -65 59 -5
29z m997 1 c0 -8 -11 -17 -24 -21 -14 -3 -32 -17 -41 -30 -16 -26 -35 -24 -35
3 0 8 9 17 20 20 11 3 20 11 20 18 0 14 15 23 43 24 9 1 17 -6 17 -14z m-3000
-19 c0 -2 -8 -10 -17 -17 -16 -13 -17 -12 -4 4 13 16 21 21 21 13z m363 -15
c-4 -4 -34 -26 -65 -50 -109 -82 -187 -189 -233 -321 l-12 -35 -4 37 c-3 20
-2 35 2 32 4 -2 10 3 13 12 3 8 2 12 -4 9 -6 -3 -10 -2 -10 4 0 17 -32 5 -51
-20 -14 -18 -19 -20 -19 -8 0 29 40 149 50 149 6 0 10 -5 10 -11 0 -6 15 4 33
23 18 18 31 37 28 42 -2 5 1 6 7 2 6 -4 29 13 53 39 23 25 46 45 52 45 5 0
-10 -20 -34 -45 -24 -24 -53 -61 -64 -82 -11 -21 -28 -47 -38 -58 -10 -10 -15
-25 -12 -33 3 -7 5 -19 6 -25 0 -7 8 7 17 31 38 93 189 262 235 262 10 0 16 4
13 9 -4 5 3 7 15 4 11 -3 17 -9 12 -12z m3297 9 c0 -5 -4 -10 -9 -10 -6 0 -13
5 -16 10 -3 6 1 10 9 10 9 0 16 -4 16 -10z m-1698 -35 c43 -32 138 -133 138
-145 0 -3 -39 -17 -87 -31 -49 -14 -95 -29 -104 -33 -13 -6 -18 0 -23 26 -4
18 -14 47 -22 63 -8 17 -12 21 -8 10 18 -62 31 -148 25 -171 -5 -21 -11 -9
-30 68 -13 51 -35 115 -48 142 -22 43 -23 48 -6 41 10 -4 27 -7 37 -7 11 1 39
-17 64 -38 24 -22 48 -37 53 -34 5 3 21 -4 36 -15 35 -24 83 -36 83 -20 0 6
-39 49 -87 95 -90 87 -99 109 -21 49z m-1622 -97 c-61 -62 -110 -116 -110
-120 0 -4 38 -19 85 -34 47 -16 85 -31 85 -35 0 -3 -23 -7 -52 -8 -28 0 -56
-5 -62 -11 -5 -5 -21 -10 -33 -10 -14 0 -35 -12 -48 -27 -31 -35 -32 -18 -5
69 35 114 180 286 242 288 4 0 -42 -51 -102 -112z m3027 87 c-4 -8 -11 -15
-17 -15 -6 0 -6 7 2 20 14 22 24 19 15 -5z m-3777 -5 c-11 -20 -30 -28 -30
-12 0 11 22 32 32 32 5 0 4 -9 -2 -20z m287 7 c12 5 14 1 8 -18 -15 -45 -48
-65 -86 -51 -17 7 -16 11 18 46 21 21 39 33 41 28 2 -6 10 -8 19 -5z m3013 -2
c0 -9 -38 -43 -43 -38 -6 6 24 43 35 43 5 0 8 -2 8 -5z m-3550 -24 c0 -8 -80
-80 -121 -109 -56 -39 -178 -187 -179 -215 0 -10 -7 -20 -15 -23 -8 -4 -15
-18 -15 -34 0 -21 9 -34 41 -54 38 -26 48 -53 18 -49 -8 0 -25 3 -39 5 -25 3
-25 2 -28 -73 -2 -63 0 -80 17 -100 18 -22 21 -23 53 -11 66 27 71 27 57 4 -7
-11 -28 -27 -46 -36 -30 -14 -32 -18 -23 -37 9 -16 8 -26 -5 -45 -16 -25 -35
-24 -35 1 0 8 -7 30 -16 49 -21 43 -50 48 -165 31 -84 -12 -129 -28 -129 -44
0 -14 -31 -22 -44 -12 -19 15 -52 17 -69 3 -12 -10 -21 -11 -38 -2 -28 16 -99
-14 -99 -41 0 -15 6 -17 33 -13 17 4 42 12 54 20 18 11 23 11 33 -1 7 -8 27
-17 46 -21 19 -3 34 -10 34 -14 0 -4 -18 -27 -40 -52 -21 -25 -36 -48 -33 -52
3 -3 26 -6 50 -6 37 0 43 3 43 22 0 35 29 58 72 58 43 0 45 -5 23 -65 -8 -22
-14 -61 -15 -87 0 -56 -17 -141 -34 -171 -18 -32 -121 -134 -112 -111 16 41
45 165 55 239 13 92 14 108 3 101 -13 -8 -152 15 -147 25 3 4 -4 13 -15 19
-11 6 -20 17 -20 25 0 18 8 19 -81 -4 -110 -29 -108 -27 -111 -78 -2 -33 -9
-49 -23 -57 -46 -26 -47 -33 -4 -67 23 -18 47 -46 54 -62 l13 -30 16 25 c16
24 16 28 -9 73 -30 57 -31 75 -6 75 12 0 29 -16 44 -42 61 -104 138 -166 193
-155 18 3 22 1 15 -6 -26 -26 -133 5 -180 52 -18 18 -20 18 -42 -17 -29 -44
-114 -111 -152 -119 -19 -4 -26 -10 -23 -19 4 -8 9 -21 12 -29 3 -8 2 -15 -4
-15 -5 0 -15 7 -22 15 -14 17 -50 20 -50 4 0 -6 10 -28 21 -49 22 -38 22 -39
4 -77 -10 -22 -20 -32 -23 -25 -2 8 1 19 7 25 6 6 11 24 11 39 0 24 -4 28 -30
28 -35 0 -80 19 -80 34 0 6 -4 6 -11 -1 -6 -6 -18 -9 -25 -6 -8 3 -14 0 -14
-7 0 -7 8 -10 20 -7 29 8 48 -20 27 -41 -15 -14 -17 -15 -17 -1 0 11 -8 15
-24 14 -42 -5 -66 -16 -66 -30 0 -18 -37 -39 -44 -26 -10 15 12 59 31 64 12 3
9 5 -9 6 -27 1 -50 -16 -69 -51 -7 -13 -17 -18 -29 -15 -11 3 -24 -1 -31 -9
-6 -8 -17 -14 -23 -14 -7 0 -24 -6 -38 -12 -21 -10 -26 -18 -21 -39 3 -17 1
-26 -9 -26 -66 0 -154 -46 -113 -58 51 -16 49 -15 34 -29 -8 -8 -29 -17 -46
-21 -31 -6 -33 -5 -33 24 0 37 -9 44 -41 26 -13 -8 -41 -21 -61 -31 -21 -9
-38 -19 -38 -23 0 -4 18 -26 40 -50 23 -25 37 -48 33 -54 -11 -17 -4 -48 17
-77 9 -14 32 -54 49 -90 18 -36 45 -79 62 -95 16 -17 29 -37 29 -45 0 -13 -2
-13 -10 0 -7 12 -12 12 -22 2 -10 -10 -8 -14 10 -18 25 -7 29 -26 8 -43 -11
-9 -20 -10 -36 -1 -20 11 -21 10 -11 -9 7 -12 7 -22 2 -26 -16 -9 -90 26 -114
55 -17 19 -37 29 -69 34 -26 4 -54 16 -63 26 -10 11 -24 20 -32 20 -7 0 -22 6
-33 12 -16 10 -24 10 -41 0 -50 -32 -16 14 44 60 23 16 27 26 22 47 -3 16 -2
21 3 13 9 -13 26 0 125 87 32 29 36 36 23 43 -21 12 -21 32 0 24 10 -4 14 -1
12 6 -3 7 -15 15 -29 18 -17 4 -25 14 -27 33 -3 20 -9 27 -26 27 -38 0 -37 11
2 40 20 15 48 40 62 55 23 26 23 27 3 16 -25 -13 -103 -15 -103 -3 0 17 25 32
52 32 51 0 129 48 243 148 27 24 90 64 140 89 49 25 120 65 157 89 93 59 123
74 193 93 59 16 60 17 57 49 -2 18 1 39 7 45 5 7 15 34 22 60 8 35 23 59 57
90 25 23 53 50 64 60 24 23 143 98 190 120 85 40 198 60 340 61 l137 1 0 137
c1 75 6 149 12 164 80 211 165 304 299 327 43 7 50 7 50 -2z m52 -53 c-5 -29
-8 -80 -6 -113 l4 -60 -15 45 c-12 37 -13 57 -5 109 6 36 14 69 17 74 12 19
14 -4 5 -55z m3968 48 c0 -3 -4 -8 -10 -11 -5 -3 -10 -1 -10 4 0 6 5 11 10 11
6 0 10 -2 10 -4z m-2863 -26 c-3 -10 2 -25 9 -31 12 -10 21 -8 44 10 17 12 30
18 30 15 0 -10 -80 -167 -91 -179 -6 -5 -7 10 -3 38 6 38 4 47 -9 47 -10 0
-13 6 -10 20 3 11 3 20 -1 20 -8 0 -36 -68 -36 -89 -1 -38 -13 -41 -83 -20
l-68 20 58 43 c32 24 78 61 103 84 50 46 65 52 57 22z m1433 -15 c13 -14 21
-25 18 -25 -2 0 -15 11 -28 25 -13 14 -21 25 -18 25 2 0 15 -11 28 -25z m1625
5 c3 -5 1 -10 -4 -10 -6 0 -11 5 -11 10 0 6 2 10 4 10 3 0 8 -4 11 -10z
m-1265 -98 c12 -24 20 -45 17 -48 -2 -3 -15 14 -27 38 -12 24 -31 59 -42 78
l-20 35 25 -30 c14 -16 35 -49 47 -73z m1136 82 c-3 -9 -6 -20 -6 -26 0 -6 -6
-5 -15 2 -12 10 -13 16 -4 26 16 19 33 18 25 -2z m-134 -25 c-23 -9 -27 -3
-12 16 11 13 15 13 21 3 5 -8 2 -15 -9 -19z m1231 8 c12 11 39 -20 34 -39 -7
-24 5 -23 21 2 16 27 62 27 62 1 0 -11 -4 -23 -10 -26 -5 -3 -10 -11 -10 -16
0 -6 4 -7 10 -4 12 8 -28 -57 -57 -93 l-23 -27 3 30 c2 17 7 31 11 32 8 2 46
43 46 50 0 2 -11 -4 -25 -13 -24 -16 -27 -16 -40 2 -8 10 -12 25 -9 33 3 10
-2 9 -16 -4 -11 -10 -19 -23 -18 -29 2 -7 0 -11 -3 -11 -3 0 -13 -6 -21 -12
-30 -25 -40 26 -12 65 14 21 14 23 -8 31 -22 9 -22 10 -2 10 12 1 25 8 28 17
5 12 10 14 20 5 7 -6 16 -8 19 -4z m-1247 -28 c10 -17 -13 -36 -27 -22 -12 12
-4 33 11 33 5 0 12 -5 16 -11z m-1533 -27 c4 10 7 10 15 -1 6 -8 4 -23 -6 -43
l-15 -31 -13 24 c-7 13 -13 32 -14 43 0 15 3 16 14 7 11 -9 15 -9 19 1z m627
-56 c0 -31 -17 -6 -24 34 -7 35 -7 35 8 10 9 -14 15 -34 16 -44z m-218 17 c25
-39 51 -103 44 -110 -3 -4 -39 65 -68 130 -12 28 -2 20 24 -20z m-1687 -9 c-8
-20 -12 -40 -9 -45 3 -5 0 -9 -5 -9 -6 0 -11 9 -11 19 0 29 18 71 30 71 6 0 4
-14 -5 -36z m1663 -41 c26 -80 28 -101 5 -55 -24 50 -63 63 -138 47 -57 -12
-80 -11 -83 7 -4 19 95 55 184 67 6 0 20 -29 32 -66z m146 35 c9 -17 16 -39
16 -49 0 -10 5 -21 10 -24 6 -3 10 -18 9 -33 0 -24 -1 -25 -9 -7 -49 122 -57
145 -50 145 5 0 16 -14 24 -32z m716 22 c17 -10 17 -9 -33 -38 -47 -27 -56
-28 -26 -2 13 10 20 19 15 20 -5 0 -3 7 4 15 14 17 20 18 40 5z m1681 -8 c-12
-23 -40 -47 -46 -40 -3 3 4 17 16 31 24 31 45 37 30 9z m-1399 -1 c15 8 18 6
18 -16 0 -28 -12 -32 -30 -10 -7 8 -16 13 -19 10 -4 -2 -8 3 -8 11 0 10 4 11
10 5 7 -7 16 -7 29 0z m1038 -1 c0 -5 -4 -10 -10 -10 -5 0 -10 5 -10 10 0 6 5
10 10 10 6 0 10 -4 10 -10z m420 -23 c0 -7 -9 -21 -21 -30 -11 -10 -18 -21
-15 -25 4 -3 18 6 32 21 14 15 30 25 35 21 12 -7 -20 -44 -63 -75 -26 -19 -26
-19 -21 1 3 12 0 20 -7 20 -15 0 -10 13 20 49 27 33 40 38 40 18z m-4566 -44
c-21 -70 -35 -103 -45 -103 -5 0 -9 -9 -9 -20 0 -11 -4 -20 -10 -20 -13 0 -13
-3 10 64 17 51 56 126 65 126 2 0 -3 -21 -11 -47z m2876 26 c0 -5 -4 -9 -10
-9 -5 0 -10 7 -10 16 0 8 5 12 10 9 6 -3 10 -10 10 -16z m801 1 c11 0 19 -7
19 -16 0 -15 -2 -15 -22 -2 -12 8 -23 20 -24 27 -1 6 0 7 3 1 2 -5 13 -10 24
-10z m699 10 c0 -5 -5 -10 -11 -10 -5 0 -7 5 -4 10 3 6 8 10 11 10 2 0 4 -4 4
-10z m-3944 -78 c-12 -12 -18 8 -10 35 l8 28 4 -28 c2 -16 1 -31 -2 -35z
m1088 32 c3 -8 2 -12 -4 -9 -6 3 -10 10 -10 16 0 14 7 11 14 -7z m2140 -40
c25 -21 44 -39 41 -42 -3 -3 -15 4 -28 16 -13 12 -28 22 -34 22 -5 0 -18 9
-28 20 -29 32 -2 23 49 -16z m156 -13 c-1 -13 -4 -12 -15 3 -8 11 -15 27 -15
35 1 13 4 12 15 -3 8 -11 15 -27 15 -35z m60 28 c0 -6 -4 -7 -10 -4 -5 3 -10
11 -10 16 0 6 5 7 10 4 6 -3 10 -11 10 -16z m590 7 c0 -2 -8 -10 -17 -17 -16
-13 -17 -12 -4 4 13 16 21 21 21 13z m160 -13 c0 -15 -52 -73 -66 -73 -26 0
-15 38 19 58 34 22 47 26 47 15z m-716 -62 c-5 -6 -33 31 -33 44 -1 6 8 -1 19
-15 10 -14 17 -27 14 -29z m-299 19 c3 -5 1 -10 -4 -10 -6 0 -11 5 -11 10 0 6
2 10 4 10 3 0 8 -4 11 -10z m815 0 c0 -5 -5 -10 -11 -10 -5 0 -7 5 -4 10 3 6
8 10 11 10 2 0 4 -4 4 -10z m265 -20 c6 -10 -62 -90 -77 -90 -17 0 -6 31 23
65 32 37 44 42 54 25z m-985 -42 c0 -13 -23 -5 -28 10 -2 7 2 10 12 6 9 -3 16
-11 16 -16z m-126 -4 c5 -14 4 -15 -9 -4 -17 14 -19 20 -6 20 5 0 12 -7 15
-16z m264 -5 c-2 -6 -8 -10 -13 -10 -5 0 -11 4 -13 10 -2 6 4 11 13 11 9 0 15
-5 13 -11z m142 -9 c0 -5 -7 -10 -16 -10 -8 0 -12 5 -9 10 3 6 10 10 16 10 5
0 9 -4 9 -10z m-261 -21 c-16 -10 -23 -4 -14 10 3 6 11 8 17 5 6 -4 5 -9 -3
-15z m161 -9 c0 -5 -2 -10 -4 -10 -3 0 -8 5 -11 10 -3 6 -1 10 4 10 6 0 11 -4
11 -10z m-190 -10 c0 -5 -7 -10 -16 -10 -8 0 -12 5 -9 10 3 6 10 10 16 10 5 0
9 -4 9 -10z m1010 -25 c-13 -14 -31 -25 -39 -25 -10 0 -3 11 19 29 41 35 54
32 20 -4z m-915 16 c3 -5 0 -13 -7 -17 -6 -4 -14 -2 -16 4 -2 7 -8 10 -13 6
-5 -3 -9 0 -9 5 0 13 37 15 45 2z m-60 -11 c3 -5 1 -10 -4 -10 -6 0 -11 5 -11
10 0 6 2 10 4 10 3 0 8 -4 11 -10z m-305 -10 c0 -5 -4 -10 -10 -10 -5 0 -10 5
-10 10 0 6 5 10 10 10 6 0 10 -4 10 -10z m307 -26 c2 -5 -10 -11 -27 -12 -21
-2 -28 1 -24 11 5 15 46 16 51 1z m333 -34 c0 -5 -4 -10 -10 -10 -5 0 -10 5
-10 10 0 6 5 10 10 10 6 0 10 -4 10 -10z m-5580 -20 c13 -9 13 -11 0 -20 -19
-12 -60 -13 -60 0 0 8 28 29 40 30 3 0 12 -5 20 -10z m5140 0 c0 -12 -17 -12
-45 0 -17 7 -15 9 13 9 17 1 32 -3 32 -9z m105 0 c3 -5 -1 -10 -10 -10 -9 0
-13 5 -10 10 3 6 8 10 10 10 2 0 7 -4 10 -10z m475 -10 c0 -5 -7 -10 -16 -10
-8 0 -12 5 -9 10 3 6 10 10 16 10 5 0 9 -4 9 -10z m-532 -12 c-6 -18 -28 -21
-28 -4 0 9 7 16 16 16 9 0 14 -5 12 -12z m-63 -19 c11 -17 2 -18 -19 -3 -17
12 -17 14 -4 14 9 0 20 -5 23 -11z m113 -18 c3 -8 -1 -12 -9 -9 -7 2 -15 10
-17 17 -3 8 1 12 9 9 7 -2 15 -10 17 -17z m422 15 c0 -3 -4 -8 -10 -11 -5 -3
-10 -1 -10 4 0 6 5 11 10 11 6 0 10 -2 10 -4z m90 -31 c0 -8 -4 -15 -9 -15
-13 0 -22 16 -14 24 11 11 23 6 23 -9z m-1314 -15 c16 0 18 -9 6 -28 -7 -11
-58 -12 -56 -1 3 15 30 47 32 39 2 -5 10 -10 18 -10z m944 0 c0 -5 -4 -10 -10
-10 -5 0 -10 5 -10 10 0 6 5 10 10 10 6 0 10 -4 10 -10z m160 0 c0 -5 -2 -10
-4 -10 -3 0 -8 5 -11 10 -3 6 -1 10 4 10 6 0 11 -4 11 -10z m-5720 -10 c0 -5
-7 -10 -16 -10 -8 0 -12 5 -9 10 3 6 10 10 16 10 5 0 9 -4 9 -10z m5457 -6
c-3 -3 -12 -4 -19 -1 -8 3 -5 6 6 6 11 1 17 -2 13 -5z m483 2 c0 -11 -19 -15
-25 -6 -3 5 1 10 9 10 9 0 16 -2 16 -4z m-175 -66 c3 -5 1 -10 -4 -10 -6 0
-11 5 -11 10 0 6 2 10 4 10 3 0 8 -4 11 -10z m-5990 -30 c3 -5 -3 -10 -14 -10
-12 0 -21 5 -21 10 0 6 6 10 14 10 8 0 18 -4 21 -10z m5335 -20 c0 -15 -5 -12
-26 11 -19 22 -19 22 4 10 12 -6 22 -16 22 -21z m-4701 3 c11 -10 24 -37 30
-60 16 -60 -9 -213 -54 -328 l-34 -90 -1 120 c0 66 -3 171 -7 232 -4 84 -3
116 7 128 16 20 37 19 59 -2z m-949 3 c0 -3 -4 -8 -10 -11 -5 -3 -10 -1 -10 4
0 6 5 11 10 11 6 0 10 -2 10 -4z m5690 -6 c0 -5 -4 -10 -10 -10 -5 0 -10 5
-10 10 0 6 5 10 10 10 6 0 10 -4 10 -10z m855 -30 c-3 -5 -10 -10 -16 -10 -5
0 -9 5 -9 10 0 6 7 10 16 10 8 0 12 -4 9 -10z m-6240 -20 c9 -15 -16 -43 -27
-32 -10 10 0 42 12 42 5 0 12 -5 15 -10z m6280 -72 c7 -7 2 -9 -15 -4 -14 3
-35 6 -47 6 -13 0 -23 5 -23 11 0 14 70 3 85 -13z m-458 6 c-3 -3 -12 -4 -19
-1 -8 3 -5 6 6 6 11 1 17 -2 13 -5z m-4853 -23 c3 -5 -6 -12 -20 -15 -30 -8
-53 2 -33 15 18 11 46 11 53 0z m5306 -11 c12 -8 11 -10 -7 -10 -13 0 -23 5
-23 10 0 13 11 13 30 0z m-5210 -20 c-6 -11 -20 -20 -32 -20 -20 0 -21 1 -3
20 10 11 24 20 32 20 11 0 11 -4 3 -20z m5270 10 c0 -5 -2 -10 -4 -10 -3 0 -8
5 -11 10 -3 6 -1 10 4 10 6 0 11 -4 11 -10z m-350 -25 c0 -8 -4 -15 -9 -15
-13 0 -22 16 -14 24 11 11 23 6 23 -9z m-85 -15 c3 -5 2 -10 -4 -10 -5 0 -13
5 -16 10 -3 6 -2 10 4 10 5 0 13 -4 16 -10z m-5542 -15 c47 -6 65 -29 32 -41
-11 -5 -14 -20 -13 -64 2 -32 0 -62 -4 -66 -4 -4 -22 -3 -40 2 -32 9 -33 12
-36 66 l-3 57 -37 6 c-64 11 -67 13 -47 36 19 20 16 20 148 4z m4994 -5 l72 1
11 -38 c6 -21 13 -58 16 -83 4 -35 3 -41 -6 -27 -6 9 -17 17 -25 17 -7 0 -16
8 -20 18 -5 17 -71 92 -80 92 -3 0 -5 -7 -5 -15 0 -8 -4 -15 -9 -15 -5 0 -14
7 -21 15 -7 8 -21 15 -31 15 -12 0 -16 -5 -13 -15 7 -18 -15 -20 -51 -3 -28
13 -30 19 -12 37 8 9 26 11 57 6 25 -4 77 -6 117 -5z m173 -20 c0 -25 -4 -29
-23 -28 -18 2 -22 8 -21 27 2 15 3 27 3 29 1 1 10 2 21 2 16 0 20 -7 20 -30z
m740 16 c0 -11 11 -14 45 -10 31 3 45 0 45 -8 0 -6 7 -3 15 8 13 17 14 17 15
2 0 -10 5 -18 12 -18 19 0 2 -11 -25 -16 -14 -2 -51 3 -83 11 -31 8 -67 12
-80 9 -16 -4 -24 -2 -24 6 0 7 7 10 15 6 9 -3 15 0 15 9 0 9 10 15 25 15 15 0
25 -6 25 -14z m-6420 -16 c0 -5 -4 -10 -10 -10 -5 0 -10 5 -10 10 0 6 5 10 10
10 6 0 10 -4 10 -10z m6170 -10 c0 -5 -5 -10 -11 -10 -5 0 -7 5 -4 10 3 6 8
10 11 10 2 0 4 -4 4 -10z m-115 -10 c3 -5 2 -10 -4 -10 -5 0 -13 5 -16 10 -3
6 -2 10 4 10 5 0 13 -4 16 -10z m315 -21 c0 -5 -4 -9 -8 -9 -5 0 -9 7 -9 15 0
8 4 12 9 9 4 -3 8 -9 8 -15z m-223 -21 c-3 -8 -6 -5 -6 6 -1 11 2 17 5 13 3
-3 4 -12 1 -19z m257 -4 c9 -3 16 -12 16 -20 0 -16 -42 -4 -48 14 -4 13 8 15
32 6z m-718 -19 c-20 -15 -36 -19 -36 -10 0 5 38 23 50 24 3 0 -4 -6 -14 -14z
m634 -10 c0 -8 -4 -15 -10 -15 -5 0 -10 7 -10 15 0 8 5 15 10 15 6 0 10 -7 10
-15z m-100 1 c0 -3 -4 -8 -10 -11 -5 -3 -10 -1 -10 4 0 6 5 11 10 11 6 0 10
-2 10 -4z m260 0 c0 -3 -4 -8 -10 -11 -5 -3 -10 -1 -10 4 0 6 5 11 10 11 6 0
10 -2 10 -4z m-782 -31 c-3 -3 -9 2 -12 12 -6 14 -5 15 5 6 7 -7 10 -15 7 -18z
m667 15 c3 -5 1 -10 -4 -10 -6 0 -11 5 -11 10 0 6 2 10 4 10 3 0 8 -4 11 -10z
m-825 -4 c0 -3 -4 -8 -10 -11 -5 -3 -10 -1 -10 4 0 6 5 11 10 11 6 0 10 -2 10
-4z m-469 -33 c13 -16 12 -17 -3 -4 -17 13 -22 21 -14 21 2 0 10 -8 17 -17z
m1326 4 c6 -4 14 -1 16 5 4 8 8 5 12 -9 6 -18 10 -20 25 -11 10 7 25 8 36 3
18 -7 18 -8 2 -12 -10 -3 -18 -9 -18 -15 0 -6 9 -8 20 -5 29 8 24 -8 -7 -23
-32 -14 -93 -22 -93 -11 0 4 5 12 11 18 13 13 -25 38 -46 29 -9 -3 -12 0 -8
10 3 9 -1 14 -12 14 -9 0 -13 4 -10 10 6 10 53 8 72 -3z m342 -10 c-2 -1 -12
-9 -22 -16 -15 -12 -17 -12 -11 3 3 9 13 16 22 16 8 0 13 -1 11 -3z m-1324
-37 c3 -5 2 -10 -4 -10 -5 0 -13 5 -16 10 -3 6 -2 10 4 10 5 0 13 -4 16 -10z
m960 -30 c-3 -5 -13 -10 -21 -10 -8 0 -14 5 -14 10 0 6 9 10 21 10 11 0 17 -4
14 -10z m360 0 c-3 -5 -12 -10 -18 -10 -7 0 -24 -11 -39 -23 -20 -17 -24 -27
-17 -34 16 -16 2 -33 -27 -33 -27 0 -33 24 -9 34 8 3 14 11 13 17 -4 15 59 59
84 59 11 0 16 -4 13 -10z m-7065 -30 c-13 -24 -26 -26 -33 -6 -4 10 2 16 16
19 12 2 23 5 25 6 1 0 -2 -8 -8 -19z m5757 14 c-3 -3 -12 -4 -19 -1 -8 3 -5 6
6 6 11 1 17 -2 13 -5z m1030 -10 c-3 -3 -12 -4 -19 -1 -8 3 -5 6 6 6 11 1 17
-2 13 -5z m-1162 -132 l30 -23 -33 17 c-18 10 -51 39 -75 63 l-42 45 45 -40
c25 -21 59 -50 75 -62z m-4838 66 c33 -31 29 -45 -18 -53 -23 -4 -49 -15 -58
-24 -20 -20 -55 -36 -46 -21 5 9 -40 13 -126 14 -14 0 -15 3 -6 18 16 25 61
44 130 57 32 6 66 15 75 20 23 14 23 14 49 -11z m-352 -47 c-9 -16 -25 -3 -18
15 4 10 9 12 15 6 6 -6 7 -15 3 -21z m5423 -7 c-15 -16 -33 -24 -44 -22 -17 4
-16 6 6 15 14 6 32 18 39 27 8 9 16 14 19 11 3 -3 -6 -17 -20 -31z m1242 -79
c-7 -9 -15 -13 -17 -11 -7 7 7 26 19 26 6 0 6 -6 -2 -15z m-6810 -15 c0 -5 -4
-10 -10 -10 -5 0 -10 5 -10 10 0 6 5 10 10 10 6 0 10 -4 10 -10z m-214 -49
c-22 -21 -46 0 -26 24 10 12 16 13 27 3 12 -10 12 -13 -1 -27z m621 25 c-4 -9
1 -17 11 -20 26 -7 116 -20 125 -17 5 1 5 -4 1 -10 -5 -9 -37 -10 -116 -5 -91
5 -124 3 -201 -14 -51 -12 -97 -23 -104 -25 -7 -2 -15 0 -18 6 -14 21 124 53
272 62 7 0 10 4 7 9 -7 10 4 28 18 28 5 0 8 -7 5 -14z m-317 -12 c0 -4 -9 -21
-20 -39 -19 -31 -70 -64 -70 -45 0 6 3 10 8 10 4 0 20 18 36 40 27 36 46 50
46 34z m-165 -43 c7 -12 -12 -24 -25 -16 -11 7 -4 25 10 25 5 0 11 -4 15 -9z
m5798 2 c-13 -2 -35 -2 -50 0 -16 2 -5 4 22 4 28 0 40 -2 28 -4z m70 0 c-7 -2
-21 -2 -30 0 -10 3 -4 5 12 5 17 0 24 -2 18 -5z m-5493 -28 c0 -8 -4 -15 -9
-15 -13 0 -22 16 -14 24 11 11 23 6 23 -9z m323 -49 c3 -7 23 -17 44 -21 l38
-8 -30 -12 c-26 -12 -33 -10 -63 13 -24 19 -30 27 -20 33 18 12 25 11 31 -5z
m-900 -55 c-2 -31 4 -55 23 -87 l26 -44 -29 0 c-21 0 -24 3 -13 10 12 8 9 15
-20 45 -37 38 -60 45 -60 18 0 -13 -16 -23 -58 -36 -31 -9 -62 -17 -68 -17 -6
0 -17 -7 -24 -16 -15 -17 -61 -15 -67 3 -3 7 18 23 46 37 27 14 87 51 132 81
97 67 115 68 112 6z m6516 -91 c-6 -16 -15 -30 -20 -30 -13 0 -11 13 7 38 21
30 25 28 13 -8z m-6404 0 c3 -5 1 -10 -4 -10 -6 0 -11 5 -11 10 0 6 2 10 4 10
3 0 8 -4 11 -10z m6495 0 c0 -5 -5 -10 -11 -10 -5 0 -7 5 -4 10 3 6 8 10 11
10 2 0 4 -4 4 -10z m-124 -34 c9 -15 21 -22 30 -19 8 3 14 0 14 -6 0 -6 -4
-11 -10 -11 -5 0 -7 -7 -4 -15 4 -8 2 -15 -2 -15 -5 -1 -29 -5 -54 -10 -51 -9
-70 0 -70 35 0 24 42 65 66 65 7 0 21 -11 30 -24z m-483 -3 c-13 -2 -33 -2
-45 0 -13 2 -3 4 22 4 25 0 35 -2 23 -4z m165 0 c-16 -2 -40 -2 -55 0 -16 2
-3 4 27 4 30 0 43 -2 28 -4z m-6048 -7 c0 -3 -4 -8 -10 -11 -5 -3 -10 -1 -10
4 0 6 5 11 10 11 6 0 10 -2 10 -4z m4655 -141 c21 -38 34 -65 28 -60 -6 6 -27
42 -48 80 -21 39 -34 66 -28 60 6 -5 27 -41 48 -80z m-3515 38 c18 -21 78 -85
134 -143 111 -115 349 -377 436 -480 30 -36 72 -85 95 -110 22 -25 69 -79 105
-120 36 -41 75 -83 87 -94 23 -19 22 -36 -1 -36 -7 0 -46 39 -88 88 -42 48
-84 96 -95 107 -10 11 -63 72 -118 135 -171 198 -273 309 -447 488 -92 94
-168 179 -168 187 0 26 27 16 60 -22z m5250 -58 c0 -18 -14 -27 -33 -19 -21 8
-30 36 -15 45 15 10 48 -8 48 -26z m-1289 6 c27 -3 -1 -24 -32 -24 -70 1 -76
2 -58 16 14 10 46 13 90 8z m74 -1 c-3 -5 -10 -10 -16 -10 -5 0 -9 5 -9 10 0
6 7 10 16 10 8 0 12 -4 9 -10z m905 -9 c0 -4 -21 -8 -46 -10 -25 -1 -44 2 -41
6 7 10 87 14 87 4z m200 -31 c19 -17 29 -30 23 -30 -7 0 -15 5 -18 10 -3 6
-14 10 -23 10 -10 0 -23 9 -30 20 -19 31 6 25 48 -10z m360 -20 c0 -5 -2 -10
-4 -10 -3 0 -8 5 -11 10 -3 6 -1 10 4 10 6 0 11 -4 11 -10z m-220 -15 c0 -10
-10 -15 -27 -15 -27 1 -27 1 -9 15 25 19 36 19 36 0z m-7060 -4 c0 -5 3 -16 6
-25 5 -12 -1 -16 -23 -16 -41 0 -48 11 -21 32 26 20 38 23 38 9z m29 -72 c-11
-22 -29 -34 -29 -20 0 5 5 13 10 16 6 3 10 16 10 28 0 17 2 19 9 8 6 -9 6 -22
0 -32z m7544 -47 c-4 -9 -30 -64 -59 -122 -60 -120 -73 -106 -19 21 19 46 35
93 35 105 0 28 9 35 31 23 12 -6 16 -15 12 -27z m-1925 21 c-10 -2 -26 -2 -35
0 -10 3 -2 5 17 5 19 0 27 -2 18 -5z m-5489 -15 c48 -16 47 -15 26 -38 -24
-27 -39 -25 -64 6 -36 46 -26 54 38 32z m248 -34 c-3 -4 -14 -3 -24 0 -15 6
-15 8 -3 16 16 10 39 -4 27 -16z m5986 19 c-7 -2 -19 -2 -25 0 -7 3 -2 5 12 5
14 0 19 -2 13 -5z m240 0 c-7 -2 -19 -2 -25 0 -7 3 -2 5 12 5 14 0 19 -2 13
-5z m-642 -20 c13 -16 12 -17 -3 -4 -10 7 -18 15 -18 17 0 8 8 3 21 -13z
m-5696 -83 c3 -5 -1 -10 -10 -10 -9 0 -13 5 -10 10 3 6 8 10 10 10 2 0 7 -4
10 -10z m6785 -29 c0 -16 -22 -24 -30 -11 -5 9 -9 9 -11 1 -3 -8 -10 -7 -24 3
-19 14 -17 15 23 16 23 0 42 -4 42 -9z m15 -131 c-3 -5 -10 -10 -16 -10 -5 0
-9 5 -9 10 0 6 7 10 16 10 8 0 12 -4 9 -10z m-1258 -116 c1 -69 1 -69 -7 -19
-5 27 -12 60 -15 73 -4 17 -2 23 7 20 9 -3 14 -27 15 -74z m268 66 c13 -6 -7
-9 -62 -9 -49 -1 -83 3 -83 9 0 12 117 12 145 0z m-715 -32 c0 -19 -2 -20 -10
-8 -13 19 -13 30 0 30 6 0 10 -10 10 -22z m2000 -7 c0 -11 -29 -35 -35 -29
-10 9 7 38 21 38 8 0 14 -4 14 -9z m-1543 -143 c-3 -8 -6 -5 -6 6 -1 11 2 17
5 13 3 -3 4 -12 1 -19z m-422 -47 c-11 -5 -47 -10 -79 -13 -44 -4 -55 -2 -44
6 8 6 44 12 79 13 41 1 57 -1 44 -6z m2555 -51 c0 -5 -5 -10 -11 -10 -5 0 -7
5 -4 10 3 6 8 10 11 10 2 0 4 -4 4 -10z m259 -14 c9 -11 9 -20 2 -34 -21 -40
-231 -172 -273 -172 -10 0 -18 -4 -18 -10 0 -5 -9 -10 -20 -10 -10 0 -23 -7
-28 -16 -7 -12 -11 -13 -17 -5 -9 15 -20 6 105 82 143 87 230 151 225 167 -6
17 10 15 24 -2z m-1786 -23 c-7 -2 -21 -2 -30 0 -10 3 -4 5 12 5 17 0 24 -2
18 -5z m-578 -13 c-3 -5 -13 -10 -21 -10 -8 0 -12 5 -9 10 3 6 13 10 21 10 8
0 12 -4 9 -10z m73 3 c-10 -2 -26 -2 -35 0 -10 3 -2 5 17 5 19 0 27 -2 18 -5z
m125 0 c-18 -2 -48 -2 -65 0 -18 2 -4 4 32 4 36 0 50 -2 33 -4z m-328 -8 c-21
-7 -179 -12 -160 -4 11 4 54 8 95 8 41 -1 71 -2 65 -4z m2530 -82 c-2 -8 -1
-12 4 -9 13 8 53 -107 46 -129 -4 -11 3 -5 15 13 12 17 26 32 31 32 13 0 -4
-30 -29 -53 -20 -18 -21 -17 -55 55 -41 84 -52 121 -43 145 6 14 9 12 22 -12
8 -16 12 -35 9 -42z m-5545 0 c-8 -3 -30 -12 -47 -19 -18 -7 -33 -11 -33 -9 0
9 56 34 75 34 14 0 16 -2 5 -6z m4868 -33 c-14 -22 -24 -19 -15 5 4 8 11 15
17 15 6 0 6 -7 -2 -20z m567 -29 c-32 -31 -245 -171 -261 -171 -2 0 -4 4 -4 8
0 4 30 25 68 46 37 22 76 47 87 57 33 30 129 98 140 99 5 0 -8 -18 -30 -39z
m83 -8 c26 -57 28 -70 5 -52 -16 14 -43 69 -43 89 0 23 17 7 38 -37z m-5469
-28 c25 -29 87 -140 73 -131 -7 4 -39 43 -72 86 -54 70 -58 80 -43 89 14 8 19
6 21 -7 2 -9 12 -26 21 -37z m4801 20 c0 -8 -4 -15 -10 -15 -5 0 -7 7 -4 15 4
8 8 15 10 15 2 0 4 -7 4 -15z m650 -74 c0 -11 -29 -37 -79 -69 -83 -53 -161
-96 -166 -90 -1 2 -5 17 -9 33 -6 24 -5 28 5 18 15 -15 43 -17 34 -3 -3 6 -2
10 4 10 5 0 23 12 40 26 17 14 35 23 41 19 5 -3 10 0 10 8 0 8 7 20 15 27 12
10 15 10 15 0 0 -9 7 -7 22 6 12 10 18 14 15 7 -4 -6 -2 -15 5 -19 7 -4 10 -4
6 1 -4 4 -3 14 3 22 6 7 8 13 3 13 -5 0 -2 4 6 9 18 12 30 5 30 -18z m-160
-45 c0 -2 -8 -10 -17 -17 -16 -13 -17 -12 -4 4 13 16 21 21 21 13z m338 -41
c-3 -3 -9 2 -12 12 -6 14 -5 15 5 6 7 -7 10 -15 7 -18z m-860 -19 c2 -30 0
-34 -18 -29 -23 6 -23 4 -10 37 13 36 25 32 28 -8z m845 -4 c-2 -7 6 -21 17
-32 11 -11 20 -26 20 -32 0 -14 -69 61 -70 75 0 5 8 7 18 5 9 -2 16 -10 15
-16z m-4283 -22 c0 -5 -13 -10 -30 -10 -16 0 -30 5 -30 10 0 6 14 10 30 10 17
0 30 -4 30 -10z m99 0 c12 -7 3 -9 -31 -10 -27 0 -48 3 -48 8 0 11 61 13 79 2z
m-236 -7 c-7 -2 -21 -2 -30 0 -10 3 -4 5 12 5 17 0 24 -2 18 -5z m64 1 c-3 -3
-12 -4 -19 -1 -8 3 -5 6 6 6 11 1 17 -2 13 -5z m240 0 c-3 -3 -12 -4 -19 -1
-8 3 -5 6 6 6 11 1 17 -2 13 -5z m4040 -36 c-1 -17 3 -22 16 -20 9 2 17 -2 17
-8 0 -6 4 -8 10 -5 5 3 7 0 4 -9 -3 -8 3 -19 15 -26 19 -10 20 -9 11 15 -15
39 7 31 24 -9 8 -18 19 -37 25 -40 15 -10 14 47 -1 62 -6 6 -9 14 -6 18 8 7
38 -49 38 -69 0 -8 -9 -25 -20 -38 -15 -19 -21 -21 -28 -11 -7 10 -11 8 -16
-10 -6 -22 -8 -21 -46 22 -22 25 -40 49 -40 53 0 4 -10 21 -22 37 -21 30 -21
30 -2 45 25 19 24 19 21 -7z m-703 -37 c4 -5 -13 -24 -36 -43 l-43 -33 30 42
c31 44 40 50 49 34z m596 -16 c-7 -8 -18 -15 -24 -15 -6 0 -2 7 8 15 25 19 32
19 16 0z m-3239 -36 c69 -44 130 -131 153 -219 4 -14 -8 7 -27 45 -41 86 -75
126 -141 171 -63 42 -50 45 15 3z m3174 -4 c-16 -13 -46 -37 -65 -51 l-35 -28
25 27 c24 25 89 75 100 76 3 0 -8 -11 -25 -24z m125 -55 c14 -17 37 -38 53
-46 15 -8 27 -20 27 -26 0 -9 -3 -9 -12 0 -7 7 -20 12 -29 12 -14 0 -39 24
-89 87 -6 7 -10 20 -10 29 0 18 4 15 60 -56z m-1621 26 c9 -11 -3 -14 -71 -19
-46 -3 -168 -13 -273 -22 -149 -14 -254 -16 -490 -11 -248 5 -308 3 -349 -9
-27 -8 -56 -21 -64 -27 -13 -11 -14 -10 -5 7 29 54 11 52 528 59 306 4 516 12
580 20 133 18 131 18 144 2z m1546 -26 c-3 -4 2 -13 11 -20 8 -7 13 -19 10
-27 -3 -8 -2 -12 3 -8 5 3 17 -9 25 -26 19 -39 19 -36 0 -36 -17 0 -54 65 -47
84 3 7 -2 16 -11 19 -9 3 -16 12 -16 20 0 8 6 11 15 8 8 -4 13 -10 10 -14z
m-4085 -32 c0 -5 -11 -1 -25 8 -14 9 -25 18 -25 20 0 2 11 -2 25 -8 14 -6 25
-15 25 -20z m817 26 c-3 -3 -12 -4 -19 -1 -8 3 -5 6 6 6 11 1 17 -2 13 -5z
m-63 -22 c-17 -9 -47 -25 -65 -36 -42 -23 -28 -8 26 28 22 14 46 26 55 26 8
-1 1 -9 -16 -18z m3290 -22 c12 -31 14 -46 5 -62 -6 -11 -8 -37 -6 -57 4 -28
2 -25 -11 17 -9 28 -22 52 -29 52 -8 0 -12 12 -12 33 1 23 3 26 6 10 4 -22 33
-33 33 -13 0 6 -4 10 -10 10 -5 0 -10 11 -10 25 0 37 16 30 34 -15z m-4131 23
c-7 -2 -19 -2 -25 0 -7 3 -2 5 12 5 14 0 19 -2 13 -5z m3383 -17 c6 -26 -2
-50 -15 -42 -11 7 -12 66 -1 66 5 0 12 -11 16 -24z m-3451 -26 c3 -6 -1 -7 -9
-4 -18 7 -21 14 -7 14 6 0 13 -4 16 -10z m2779 -6 c5 -13 2 -15 -15 -11 -12 3
-58 1 -103 -4 -300 -36 -1104 -41 -1169 -7 -10 5 -16 13 -12 16 3 4 221 6 483
5 262 -2 518 1 567 6 162 15 242 13 249 -5z m-2061 -11 c-7 -2 -19 -2 -25 0
-7 3 -2 5 12 5 14 0 19 -2 13 -5z m-483 -10 c-8 -3 -30 -12 -47 -19 -18 -7
-33 -11 -33 -8 0 7 63 33 80 33 13 -1 13 -1 0 -6z m4148 -43 c-7 -11 -18 -20
-24 -20 -19 0 -24 -28 -7 -35 22 -8 6 -21 -34 -30 -33 -7 -56 11 -33 25 7 4 9
13 5 20 -5 9 -2 10 12 6 13 -4 28 3 48 24 33 34 51 40 33 10z m39 -1 c-10 -6
-14 -19 -11 -38 4 -25 2 -30 -16 -28 -17 1 -20 6 -15 27 8 29 36 60 49 52 5
-2 2 -9 -7 -13z m-117 -9 c0 -5 -7 -10 -16 -10 -8 0 -12 5 -9 10 3 6 10 10 16
10 5 0 9 -4 9 -10z m145 -10 c-3 -5 -12 -10 -18 -10 -7 0 -6 4 3 10 19 12 23
12 15 0z m-5160 -38 c-2 -3 -12 -1 -22 2 -15 6 -15 9 -3 16 13 8 35 -8 25 -18z
m5161 -34 l15 -33 -5 35 c-6 35 -5 35 9 10 16 -29 19 -60 6 -60 -13 0 -51 50
-51 66 0 23 10 16 26 -18z m-222 -59 l5 -54 -12 53 c-7 30 -15 50 -19 46 -5
-4 -8 -1 -8 8 0 21 13 31 21 15 4 -7 10 -38 13 -68z m-1436 29 c-5 -14 -153
-45 -293 -59 -102 -11 -225 -10 -873 6 -100 3 -123 7 -108 22 6 7 112 7 747 3
291 -1 449 8 489 31 22 12 42 11 38 -3z m1762 -125 c0 -10 -7 -27 -15 -37 -10
-14 -12 -23 -4 -32 7 -8 6 -15 -2 -20 -7 -4 -15 -2 -17 4 -6 20 -25 13 -19 -7
3 -12 -6 -31 -26 -53 -26 -28 -28 -34 -13 -36 22 -5 48 17 42 35 -3 8 -2 12 3
9 12 -8 57 53 78 105 l17 44 8 -35 c6 -30 2 -42 -29 -88 -45 -66 -134 -145
-148 -131 -7 7 -4 14 8 21 17 9 17 11 2 28 -14 15 -14 20 -2 31 8 7 12 20 10
29 -2 8 14 38 35 65 21 28 41 58 45 68 8 22 27 22 27 0z m-2388 -118 c172 -9
323 -13 335 -10 29 7 39 -11 10 -19 -12 -4 -197 -3 -412 0 -214 4 -417 7 -450
6 -68 -2 -105 4 -105 18 0 23 214 25 622 5z m2538 -96 c0 -5 -4 -9 -10 -9 -5
0 -10 7 -10 16 0 8 5 12 10 9 6 -3 10 -10 10 -16z m-3940 1 c0 -6 -23 -9 -52
-8 l-53 1 50 7 c28 4 51 8 53 8 1 1 2 -2 2 -8z m-615 -10 c-3 -5 -12 -10 -18
-10 -7 0 -6 4 3 10 19 12 23 12 15 0z m78 3 c-7 -2 -19 -2 -25 0 -7 3 -2 5 12
5 14 0 19 -2 13 -5z m4192 -43 c-6 -10 -91 -60 -102 -60 -4 0 12 20 37 43 31
29 49 40 57 34 7 -5 11 -13 8 -17z m380 -169 c3 -5 1 -12 -5 -16 -5 -3 -10 1
-10 9 0 18 6 21 15 7z m25 -56 c0 -21 -17 -27 -24 -9 -10 25 -7 34 9 28 8 -4
15 -12 15 -19z m5 -115 c3 -5 1 -10 -4 -10 -6 0 -11 5 -11 10 0 6 2 10 4 10 3
0 8 -4 11 -10z m-7200 -44 c39 -18 86 -49 106 -67 19 -19 28 -29 20 -23 -30
22 -184 104 -241 128 -8 3 -1 4 15 1 17 -3 62 -21 100 -39z m-15 -67 c41 -25
90 -69 90 -82 0 -9 -89 51 -125 85 -26 24 -8 23 35 -3z m-75 -129 c3 -6 -1 -7
-9 -4 -18 7 -21 14 -7 14 6 0 13 -4 16 -10z m65 -52 c0 -13 -5 -9 -31 19 l-24
26 27 -19 c15 -10 28 -22 28 -26z m7350 -270 c0 -16 -20 -7 -55 23 -21 19 -35
26 -35 17 0 -7 10 -18 23 -23 25 -11 26 -25 3 -40 -11 -7 -23 -2 -44 18 -18
18 -35 25 -45 21 -10 -3 -17 -1 -17 5 0 6 7 11 15 11 21 0 36 41 21 59 -6 8
21 -8 61 -35 40 -27 72 -52 73 -56z m-7760 -345 c0 -7 -39 17 -46 28 -3 6 5 3
20 -6 14 -10 26 -19 26 -22z"/>
<path d="M4803 8963 c26 -2 67 -2 90 0 23 2 2 3 -48 3 -49 0 -68 -1 -42 -3z"/>
<path d="M6351 9236 c-8 -9 -8 -16 -2 -20 6 -4 15 3 21 14 12 23 -2 27 -19 6z"/>
<path d="M5003 8243 c-18 -9 -33 -21 -33 -26 0 -5 6 -5 13 1 7 7 29 18 48 26
19 9 27 15 19 15 -8 0 -30 -8 -47 -16z"/>
<path d="M4600 7664 c-25 -14 -34 -22 -20 -18 25 7 70 33 70 40 0 5 1 6 -50
-22z"/>
<path d="M3815 6870 c3 -5 8 -10 11 -10 2 0 4 5 4 10 0 6 -5 10 -11 10 -5 0
-7 -4 -4 -10z"/>
<path d="M3770 6850 c-12 -8 -10 -10 8 -10 13 0 20 4 17 10 -7 12 -6 12 -25 0z"/>
<path d="M4360 6610 c0 -13 30 -13 50 0 11 7 7 10 -17 10 -18 0 -33 -4 -33
-10z"/>
<path d="M5126 6673 c-6 -14 -5 -15 5 -6 7 7 10 15 7 18 -3 3 -9 -2 -12 -12z"/>
<path d="M5220 6610 c0 -12 4 -19 9 -15 5 3 12 -3 15 -12 2 -10 4 -5 3 11 -2
34 -27 49 -27 16z"/>
<path d="M5208 6518 c12 -13 22 -29 22 -35 0 -12 25 -24 34 -16 9 10 -24 50
-52 62 l-27 13 23 -24z"/>
<path d="M5194 6494 c3 -9 6 -18 6 -20 0 -2 4 -4 9 -4 5 0 7 9 4 20 -3 11 -10
20 -15 20 -6 0 -7 -7 -4 -16z"/>
<path d="M5688 6323 c6 -2 18 -2 25 0 6 3 1 5 -13 5 -14 0 -19 -2 -12 -5z"/>
<path d="M7095 5497 c-14 -21 -15 -31 -6 -40 19 -19 47 16 34 45 l-10 22 -18
-27z"/>
<path d="M7636 5429 c3 -5 12 -9 21 -9 19 0 9 13 -12 16 -8 1 -13 -2 -9 -7z"/>
<path d="M7790 5326 c0 -2 11 -6 25 -8 13 -3 22 -1 19 3 -5 9 -44 13 -44 5z"/>
<path d="M7780 5289 c0 -7 3 -9 7 -6 3 4 13 1 21 -6 13 -10 14 -9 10 3 -6 19
-38 26 -38 9z"/>
<path d="M7419 5249 l-24 -7 23 -2 c37 -4 40 -5 48 -12 4 -5 23 -8 42 -8 28 0
32 2 23 14 -14 16 -77 24 -112 15z"/>
<path d="M7452 5185 c-11 -13 -6 -15 38 -15 37 0 50 4 48 13 -6 18 -71 20 -86
2z"/>
<path d="M7145 5180 c3 -5 8 -10 11 -10 2 0 4 5 4 10 0 6 -5 10 -11 10 -5 0
-7 -4 -4 -10z"/>
<path d="M7283 5130 c-32 -13 -29 -17 7 -12 16 2 27 8 24 13 -3 5 -6 9 -7 8
-1 0 -12 -4 -24 -9z"/>
<path d="M7365 5040 c11 -5 27 -9 35 -9 13 -1 13 0 0 9 -8 5 -24 9 -35 9 l-20
0 20 -9z"/>
<path d="M7156 4911 c-10 -15 2 -81 13 -81 22 0 26 49 8 75 -10 13 -16 15 -21
6z"/>
<path d="M7230 4899 c0 -11 5 -17 10 -14 6 3 10 13 10 21 0 8 -4 14 -10 14 -5
0 -10 -9 -10 -21z"/>
<path d="M7615 4120 c10 -11 20 -20 22 -20 2 0 -1 9 -7 20 -6 11 -16 20 -22
20 -6 0 -3 -9 7 -20z"/>
<path d="M8052 3831 c4 -22 37 -23 35 -1 -1 11 -8 18 -19 17 -10 -1 -17 -8
-16 -16z"/>
<path d="M8483 3838 c-19 -24 -34 -58 -26 -58 11 0 47 60 40 66 -2 2 -9 -1
-14 -8z"/>
<path d="M8620 3580 c0 -5 5 -10 11 -10 5 0 7 5 4 10 -3 6 -8 10 -11 10 -2 0
-4 -4 -4 -10z"/>
<path d="M9280 2666 c7 -7 14 -6 21 1 9 9 7 12 -9 10 -14 -1 -18 -5 -12 -11z"/>
<path d="M5776 5417 c3 -10 9 -15 12 -12 3 3 0 11 -7 18 -10 9 -11 8 -5 -6z"/>
<path d="M2100 4230 c-55 -43 -54 -43 -34 -51 11 -4 26 -14 33 -23 13 -15 15
-15 28 4 8 11 21 20 29 20 18 0 18 4 -1 40 -18 35 -22 36 -55 10z"/>
<path d="M1730 4044 c0 -8 5 -12 10 -9 6 3 10 10 10 16 0 5 -4 9 -10 9 -5 0
-10 -7 -10 -16z"/>
<path d="M1596 3932 c-3 -6 -1 -14 5 -17 15 -10 25 3 12 16 -7 7 -13 7 -17 1z"/>
<path d="M1338 3564 c-16 -8 -28 -17 -28 -19 0 -3 23 -5 50 -5 36 0 50 4 50
14 0 12 -21 27 -38 26 -4 -1 -19 -8 -34 -16z"/>
<path d="M1325 3484 c-11 -8 -19 -18 -17 -22 2 -4 -5 -8 -15 -10 -67 -11 -68
-12 -30 -32 31 -17 44 -18 87 -10 27 5 64 7 80 3 38 -7 39 8 4 54 -28 37 -73
44 -109 17z"/>
<path d="M1411 3346 c2 -2 20 -11 39 -20 l35 -17 -25 20 c-14 11 -31 21 -39
21 -8 0 -12 -2 -10 -4z"/>
</g>
</svg>
